<?xml version="1.0" encoding="UTF-8"?>
<!DOCTYPE svg PUBLIC "-//W3C//DTD SVG 1.1//EN" "http://www.w3.org/Graphics/SVG/1.1/DTD/svg11.dtd">
<svg xmlns="http://www.w3.org/2000/svg" version="1.1" width="500px" height="500px" style="shape-rendering:geometricPrecision; text-rendering:geometricPrecision; image-rendering:optimizeQuality; fill-rule:evenodd; clip-rule:evenodd" xmlns:xlink="http://www.w3.org/1999/xlink">
<g><path style="opacity:0.004" fill="#000000" d="M 24.5,3.5 C 25.8333,4.16667 25.8333,4.16667 24.5,3.5 Z"/></g>
<g><path style="opacity:0.004" fill="#000000" d="M 108.5,7.5 C 109.833,8.16667 109.833,8.16667 108.5,7.5 Z"/></g>
<g><path style="opacity:0.004" fill="#000000" d="M 182.5,9.5 C 183.833,10.1667 183.833,10.1667 182.5,9.5 Z"/></g>
<g><path style="opacity:0.004" fill="#000000" d="M 414.5,22.5 C 415.833,23.1667 415.833,23.1667 414.5,22.5 Z"/></g>
<g><path style="opacity:0.004" fill="#000000" d="M 205.5,23.5 C 206.833,24.1667 206.833,24.1667 205.5,23.5 Z"/></g>
<g><path style="opacity:0.004" fill="#000000" d="M 304.5,38.5 C 305.833,39.1667 305.833,39.1667 304.5,38.5 Z"/></g>
<g><path style="opacity:0.004" fill="#000000" d="M 234.5,40.5 C 235.833,41.1667 235.833,41.1667 234.5,40.5 Z"/></g>
<g><path style="opacity:0.004" fill="#000000" d="M 49.5,54.5 C 50.8333,55.1667 50.8333,55.1667 49.5,54.5 Z"/></g>
<g><path style="opacity:0.004" fill="#000000" d="M 386.5,55.5 C 387.833,56.1667 387.833,56.1667 386.5,55.5 Z"/></g>
<g><path style="opacity:0.004" fill="#000000" d="M 156.5,59.5 C 157.833,60.1667 157.833,60.1667 156.5,59.5 Z"/></g>
<g><path style="opacity:0.004" fill="#000000" d="M 0.5,79.5 C 1.83333,80.1667 1.83333,80.1667 0.5,79.5 Z"/></g>
<g><path style="opacity:0.004" fill="#000000" d="M 23.5,83.5 C 24.8333,84.1667 24.8333,84.1667 23.5,83.5 Z"/></g>
<g><path style="opacity:0.004" fill="#000000" d="M 347.5,84.5 C 348.833,85.1667 348.833,85.1667 347.5,84.5 Z"/></g>
<g><path style="opacity:0.004" fill="#000000" d="M 454.5,84.5 C 455.833,85.1667 455.833,85.1667 454.5,84.5 Z"/></g>
<g><path style="opacity:0.004" fill="#000000" d="M 101.5,86.5 C 102.833,87.1667 102.833,87.1667 101.5,86.5 Z"/></g>
<g><path style="opacity:1" fill="#8d3db3" d="M 252.5,83.5 C 255.977,84.3227 259.644,84.8227 263.5,85C 267.644,85.9778 271.644,87.4778 275.5,89.5C 270.208,90.4948 264.875,90.8282 259.5,90.5C 259.167,90.5 258.833,90.5 258.5,90.5C 252.321,89.8334 245.988,89.1668 239.5,88.5C 241.5,87.6667 243.5,86.8333 245.5,86C 244.402,85.2303 244.402,84.397 245.5,83.5C 247.688,82.3773 250.021,82.3773 252.5,83.5 Z"/></g>
<g><path style="opacity:1" fill="#b05cb4" d="M 245.5,83.5 C 244.402,84.397 244.402,85.2303 245.5,86C 243.5,86.8333 241.5,87.6667 239.5,88.5C 245.988,89.1668 252.321,89.8334 258.5,90.5C 246.034,90.1379 233.701,91.1379 221.5,93.5C 219.565,94.1495 217.565,94.4828 215.5,94.5C 213.076,94.8076 210.743,94.4742 208.5,93.5C 208.977,92.5224 209.643,91.6891 210.5,91C 215.567,89.8655 220.567,88.5322 225.5,87C 227.066,86.3918 228.4,85.5585 229.5,84.5C 234.787,83.6576 240.12,83.3243 245.5,83.5 Z"/></g>
<g><path style="opacity:0.004" fill="#000000" d="M 433.5,88.5 C 434.833,89.1667 434.833,89.1667 433.5,88.5 Z"/></g>
<g><path style="opacity:1" fill="#241436" d="M 271.5,99.5 C 268.833,99.5 266.167,99.5 263.5,99.5C 244.69,96.5814 226.357,98.7481 208.5,106C 199.987,110.389 191.653,114.889 183.5,119.5C 185.053,117.687 186.72,115.853 188.5,114C 192.472,112.961 196.139,111.461 199.5,109.5C 199.5,108.167 199.5,106.833 199.5,105.5C 207.854,104.168 215.854,101.834 223.5,98.5C 237.766,96.6424 252.099,96.1424 266.5,97C 268.175,97.9853 269.842,98.8186 271.5,99.5 Z"/></g>
<g><path style="opacity:1" fill="#26123a" d="M 271.5,99.5 C 281.587,101.084 291.254,104.084 300.5,108.5C 301.415,109.328 302.081,110.328 302.5,111.5C 287.356,112.759 272.356,114.759 257.5,117.5C 259.5,116.5 261.5,115.5 263.5,114.5C 264.5,114.5 265.5,114.5 266.5,114.5C 271.357,113.862 276.023,112.862 280.5,111.5C 281.5,111.5 282.5,111.5 283.5,111.5C 289.176,111.666 294.843,111.499 300.5,111C 298.33,109.414 295.996,108.08 293.5,107C 286.005,104.558 278.672,102.058 271.5,99.5 Z"/></g>
<g><path style="opacity:1" fill="#612f94" d="M 252.5,83.5 C 270.529,83.592 287.529,87.592 303.5,95.5C 303.414,96.4959 303.748,97.3292 304.5,98C 307.167,99.3333 309.833,100.667 312.5,102C 313.337,103.011 313.67,104.178 313.5,105.5C 309.047,103.781 304.38,102.448 299.5,101.5C 293.174,98.1734 286.507,95.6734 279.5,94C 272.605,93.3521 265.939,92.1854 259.5,90.5C 264.875,90.8282 270.208,90.4948 275.5,89.5C 271.644,87.4778 267.644,85.9778 263.5,85C 259.644,84.8227 255.977,84.3227 252.5,83.5 Z"/></g>
<g><path style="opacity:1" fill="#1a182b" d="M 221.5,93.5 C 221.056,95.1132 220.056,96.2798 218.5,97C 220.382,97.1981 222.048,97.6981 223.5,98.5C 215.854,101.834 207.854,104.168 199.5,105.5C 199.5,106.833 199.5,108.167 199.5,109.5C 196.139,111.461 192.472,112.961 188.5,114C 186.72,115.853 185.053,117.687 183.5,119.5C 182.167,121.167 180.833,122.833 179.5,124.5C 176.167,127.5 172.833,130.5 169.5,133.5C 169.167,133.5 168.833,133.5 168.5,133.5C 168.719,132.325 168.386,131.325 167.5,130.5C 164.506,132.662 162.006,135.328 160,138.5C 159.577,137.044 158.744,136.544 157.5,137C 154.627,141.038 151.961,145.205 149.5,149.5C 148.482,150.193 147.482,150.859 146.5,151.5C 156.161,132.669 170.161,117.836 188.5,107C 197.351,102.237 206.351,98.0707 215.5,94.5C 217.565,94.4828 219.565,94.1495 221.5,93.5 Z"/></g>
<g><path style="opacity:1" fill="#c856c6" d="M 261.5,100.5 C 267.445,101.863 273.445,103.029 279.5,104C 280.67,105.755 282.337,106.755 284.5,107C 284.088,108.564 283.755,110.064 283.5,111.5C 282.5,111.5 281.5,111.5 280.5,111.5C 275.661,111.778 270.994,111.112 266.5,109.5C 266.174,107.339 265.174,105.506 263.5,104C 260.81,103.229 258.144,102.396 255.5,101.5C 257.396,100.534 259.396,100.201 261.5,100.5 Z"/></g>
<g><path style="opacity:1" fill="#a44ab3" d="M 261.5,100.5 C 261.842,99.6618 262.508,99.3284 263.5,99.5C 266.167,99.5 268.833,99.5 271.5,99.5C 278.672,102.058 286.005,104.558 293.5,107C 295.996,108.08 298.33,109.414 300.5,111C 294.843,111.499 289.176,111.666 283.5,111.5C 283.755,110.064 284.088,108.564 284.5,107C 282.337,106.755 280.67,105.755 279.5,104C 273.445,103.029 267.445,101.863 261.5,100.5 Z"/></g>
<g><path style="opacity:0.855" fill="#eec5e7" d="M 200.5,92.5 C 200.631,93.3764 200.298,94.0431 199.5,94.5C 173.327,106.845 153.161,125.512 139,150.5C 138.536,149.906 138.369,149.239 138.5,148.5C 152.619,122.463 173.286,103.797 200.5,92.5 Z"/></g>
<g><path style="opacity:1" fill="#f48bc8" d="M 266.5,114.5 C 265.5,114.5 264.5,114.5 263.5,114.5C 260.193,114.462 257.026,115.128 254,116.5C 250.824,116.11 248.324,114.61 246.5,112C 242.285,111.372 238.118,110.538 234,109.5C 227.581,110.91 221.081,111.744 214.5,112C 208.685,115.875 203.018,119.875 197.5,124C 197.364,128.31 195.364,131.477 191.5,133.5C 190.679,136.447 190.179,139.447 190,142.5C 189.333,143.833 188.667,143.833 188,142.5C 187.056,148.503 186.223,154.503 185.5,160.5C 186.5,162.5 187.5,164.5 188.5,166.5C 190.343,168.482 193.01,170.149 196.5,171.5C 196.5,174.833 196.5,178.167 196.5,181.5C 196.5,184.833 196.5,188.167 196.5,191.5C 195.635,188.582 194.635,185.582 193.5,182.5C 192.088,181.194 190.421,180.36 188.5,180C 187.37,177.572 185.87,175.405 184,173.5C 183.667,173.833 183.333,174.167 183,174.5C 182.667,172.5 182.333,170.5 182,168.5C 180.883,167.051 180.216,165.384 180,163.5C 179.667,163.833 179.333,164.167 179,164.5C 177.593,157.093 177.593,149.759 179,142.5C 181.552,136.609 184.552,130.943 188,125.5C 191.124,121.515 194.958,118.348 199.5,116C 198.833,115.667 198.167,115.333 197.5,115C 200.882,114.824 204.215,114.324 207.5,113.5C 209.05,111.378 211.05,109.711 213.5,108.5C 214.386,107.675 214.719,106.675 214.5,105.5C 216.696,105.59 218.863,105.923 221,106.5C 223,105.833 225,105.167 227,104.5C 235.57,105.145 244.07,106.311 252.5,108C 254.032,108.7 255.032,109.866 255.5,111.5C 257.341,112.23 259.175,112.897 261,113.5C 263.064,112.409 265.231,112.242 267.5,113C 266.944,113.383 266.611,113.883 266.5,114.5 Z"/></g>
<g><path style="opacity:1" fill="#0b101e" d="M 258.5,90.5 C 258.833,90.5 259.167,90.5 259.5,90.5C 265.939,92.1854 272.605,93.3521 279.5,94C 286.507,95.6734 293.174,98.1734 299.5,101.5C 304.003,103.789 308.669,105.956 313.5,108C 315.475,110.092 317.475,111.925 319.5,113.5C 328.103,121.087 336.103,129.087 343.5,137.5C 361.433,160.652 369.099,186.985 366.5,216.5C 364.405,245.013 353.405,269.346 333.5,289.5C 327.103,289.93 326.936,288.263 333,284.5C 335.725,279.945 338.225,275.278 340.5,270.5C 340.666,261.494 340.5,252.494 340,243.5C 338.101,240.124 337.268,236.457 337.5,232.5C 336.254,226.193 334.087,220.193 331,214.5C 326.844,211.499 324.011,207.499 322.5,202.5C 317.443,197.447 312.776,192.114 308.5,186.5C 307.271,185.719 305.938,185.219 304.5,185C 300.914,181.853 297.247,178.687 293.5,175.5C 291.556,174.811 289.556,174.311 287.5,174C 288.308,173.692 288.975,173.192 289.5,172.5C 281.237,170.684 272.904,169.85 264.5,170C 263.944,170.383 263.611,170.883 263.5,171.5C 259.638,171.167 258.805,169.501 261,166.5C 263.915,167.377 266.915,168.043 270,168.5C 273.468,167.313 276.802,166.646 280,166.5C 281.826,167.01 281.993,167.844 280.5,169C 282.579,169.808 284.579,169.641 286.5,168.5C 283.315,167.026 280.649,165.026 278.5,162.5C 281.461,163.323 284.461,163.99 287.5,164.5C 296.174,168.502 304.507,173.169 312.5,178.5C 314.548,181.215 316.882,183.548 319.5,185.5C 332.225,200.284 340.725,217.284 345,236.5C 346.465,243.848 347.798,251.181 349,258.5C 349.483,257.552 349.649,256.552 349.5,255.5C 352.858,250.812 354.858,245.478 355.5,239.5C 356.117,239.389 356.617,239.056 357,238.5C 357.539,235.471 358.206,232.471 359,229.5C 359.667,216.833 359.667,204.167 359,191.5C 358.476,186.406 357.476,181.406 356,176.5C 355.148,175.429 354.315,174.429 353.5,173.5C 352.36,167.913 350.527,162.58 348,157.5C 344.793,153.971 342.46,149.971 341,145.5C 335.473,138.64 329.306,132.473 322.5,127C 321.552,126.517 320.552,126.351 319.5,126.5C 318.71,125.206 317.71,124.039 316.5,123C 298.184,119.952 279.851,120.119 261.5,123.5C 252.166,127.163 243.499,131.83 235.5,137.5C 232.812,138.024 231.312,139.691 231,142.5C 224.804,148.511 218.971,154.845 213.5,161.5C 212.178,161.33 211.011,161.663 210,162.5C 208.47,166.09 207.136,169.757 206,173.5C 205.667,173.167 205.333,172.833 205,172.5C 204.722,173.416 204.222,174.082 203.5,174.5C 202.637,175.463 201.97,175.463 201.5,174.5C 204.29,171.078 204.123,170.411 201,172.5C 200.667,174.833 200.333,177.167 200,179.5C 199.667,179.167 199.333,178.833 199,178.5C 198.333,185.5 198.333,192.5 199,199.5C 200.607,204.384 201.941,209.384 203,214.5C 203.689,215.357 204.522,216.023 205.5,216.5C 206.85,215.05 208.516,214.383 210.5,214.5C 210.587,217.598 210.087,217.932 209,215.5C 208.182,218.227 208.348,220.894 209.5,223.5C 213.443,228.491 217.443,233.491 221.5,238.5C 217.583,236.016 214.083,233.016 211,229.5C 207.579,224.929 204.412,220.263 201.5,215.5C 197.924,204.474 196.591,193.14 197.5,181.5C 197.5,180.167 197.5,178.833 197.5,177.5C 206.854,148.476 225.854,128.476 254.5,117.5C 255.5,117.5 256.5,117.5 257.5,117.5C 272.356,114.759 287.356,112.759 302.5,111.5C 302.081,110.328 301.415,109.328 300.5,108.5C 291.254,104.084 281.587,101.084 271.5,99.5C 269.842,98.8186 268.175,97.9853 266.5,97C 252.099,96.1424 237.766,96.6424 223.5,98.5C 222.048,97.6981 220.382,97.1981 218.5,97C 220.056,96.2798 221.056,95.1132 221.5,93.5C 233.701,91.1379 246.034,90.1379 258.5,90.5 Z"/></g>
<g><path style="opacity:1" fill="#e176c3" d="M 263.5,99.5 C 262.508,99.3284 261.842,99.6618 261.5,100.5C 259.396,100.201 257.396,100.534 255.5,101.5C 258.144,102.396 260.81,103.229 263.5,104C 265.174,105.506 266.174,107.339 266.5,109.5C 270.994,111.112 275.661,111.778 280.5,111.5C 276.023,112.862 271.357,113.862 266.5,114.5C 266.611,113.883 266.944,113.383 267.5,113C 265.231,112.242 263.064,112.409 261,113.5C 259.175,112.897 257.341,112.23 255.5,111.5C 255.032,109.866 254.032,108.7 252.5,108C 244.07,106.311 235.57,105.145 227,104.5C 225,105.167 223,105.833 221,106.5C 218.863,105.923 216.696,105.59 214.5,105.5C 214.719,106.675 214.386,107.675 213.5,108.5C 211.05,109.711 209.05,111.378 207.5,113.5C 204.215,114.324 200.882,114.824 197.5,115C 198.167,115.333 198.833,115.667 199.5,116C 194.958,118.348 191.124,121.515 188,125.5C 184.552,130.943 181.552,136.609 179,142.5C 177.593,149.759 177.593,157.093 179,164.5C 179.333,164.167 179.667,163.833 180,163.5C 180.216,165.384 180.883,167.051 182,168.5C 182.333,170.5 182.667,172.5 183,174.5C 183.333,174.167 183.667,173.833 184,173.5C 185.87,175.405 187.37,177.572 188.5,180C 190.421,180.36 192.088,181.194 193.5,182.5C 194.635,185.582 195.635,188.582 196.5,191.5C 196.819,193.75 196.319,195.75 195,197.5C 194.652,192.817 192.152,190.651 187.5,191C 186.833,190 186.167,189 185.5,188C 184.175,188.148 183.008,187.982 182,187.5C 181.047,185.545 179.713,183.878 178,182.5C 173.486,168.152 172.319,153.485 174.5,138.5C 178.284,134.427 181.951,130.26 185.5,126C 184.874,125.25 184.374,124.416 184,123.5C 182.644,124.38 181.144,124.714 179.5,124.5C 180.833,122.833 182.167,121.167 183.5,119.5C 191.653,114.889 199.987,110.389 208.5,106C 226.357,98.7481 244.69,96.5814 263.5,99.5 Z"/></g>
<g><path style="opacity:1" fill="#fab3d0" d="M 254.5,117.5 C 225.854,128.476 206.854,148.476 197.5,177.5C 197.953,173.471 198.62,169.471 199.5,165.5C 199.167,164.167 198.833,162.833 198.5,161.5C 196.76,160.164 195.093,158.83 193.5,157.5C 194.04,156.252 194.707,155.085 195.5,154C 191.426,149.688 191.593,145.522 196,141.5C 196.346,138.424 197.012,135.424 198,132.5C 200.73,130.881 202.563,128.548 203.5,125.5C 208.104,123.402 212.604,121.069 217,118.5C 217.333,118.833 217.667,119.167 218,119.5C 222.265,118.044 226.599,116.711 231,115.5C 235.754,115.939 240.587,116.939 245.5,118.5C 248.517,118.232 251.517,117.898 254.5,117.5 Z"/></g>
<g><path style="opacity:1" fill="#3d227c" d="M 303.5,95.5 C 307.655,96.7417 311.322,98.7417 314.5,101.5C 319.91,107.567 326.244,112.567 333.5,116.5C 335.799,121.299 339.299,124.966 344,127.5C 344.483,128.448 344.649,129.448 344.5,130.5C 343.127,130.657 341.793,130.49 340.5,130C 341.833,129.333 341.833,128.667 340.5,128C 334.14,124.484 328.473,119.984 323.5,114.5C 322.311,113.571 320.978,113.238 319.5,113.5C 317.475,111.925 315.475,110.092 313.5,108C 308.669,105.956 304.003,103.789 299.5,101.5C 304.38,102.448 309.047,103.781 313.5,105.5C 313.67,104.178 313.337,103.011 312.5,102C 309.833,100.667 307.167,99.3333 304.5,98C 303.748,97.3292 303.414,96.4959 303.5,95.5 Z"/></g>
<g><path style="opacity:1" fill="#db89bd" d="M 229.5,84.5 C 228.4,85.5585 227.066,86.3918 225.5,87C 220.567,88.5322 215.567,89.8655 210.5,91C 209.643,91.6891 208.977,92.5224 208.5,93.5C 210.743,94.4742 213.076,94.8076 215.5,94.5C 206.351,98.0707 197.351,102.237 188.5,107C 170.161,117.836 156.161,132.669 146.5,151.5C 142.979,156.542 139.979,161.875 137.5,167.5C 138.011,164.307 138.678,161.141 139.5,158C 139.167,156.833 138.833,155.667 138.5,154.5C 137.833,154.833 137.167,155.167 136.5,155.5C 134.238,161.118 132.071,166.785 130,172.5C 129.292,173.381 128.458,174.047 127.5,174.5C 130.103,165.303 133.77,156.637 138.5,148.5C 138.369,149.239 138.536,149.906 139,150.5C 153.161,125.512 173.327,106.845 199.5,94.5C 200.298,94.0431 200.631,93.3764 200.5,92.5C 209.847,88.7461 219.514,86.0794 229.5,84.5 Z"/></g>
<g><path style="opacity:0.004" fill="#000000" d="M 432.5,122.5 C 433.833,123.167 433.833,123.167 432.5,122.5 Z"/></g>
<g><path style="opacity:1" fill="#181134" d="M 319.5,126.5 C 303.464,122.436 287.131,121.436 270.5,123.5C 265.277,126.385 259.61,128.218 253.5,129C 247.826,132.502 241.826,135.336 235.5,137.5C 243.499,131.83 252.166,127.163 261.5,123.5C 279.851,120.119 298.184,119.952 316.5,123C 317.71,124.039 318.71,125.206 319.5,126.5 Z"/></g>
<g><path style="opacity:1" fill="#2c1f61" d="M 314.5,101.5 C 329.62,109.282 341.953,120.282 351.5,134.5C 351.726,137.882 352.726,140.882 354.5,143.5C 352.801,143.66 351.134,143.494 349.5,143C 348.26,140.256 346.26,138.423 343.5,137.5C 336.103,129.087 328.103,121.087 319.5,113.5C 320.978,113.238 322.311,113.571 323.5,114.5C 328.473,119.984 334.14,124.484 340.5,128C 341.833,128.667 341.833,129.333 340.5,130C 341.793,130.49 343.127,130.657 344.5,130.5C 344.649,129.448 344.483,128.448 344,127.5C 339.299,124.966 335.799,121.299 333.5,116.5C 326.244,112.567 319.91,107.567 314.5,101.5 Z"/></g>
<g><path style="opacity:1" fill="#fba0cc" d="M 263.5,114.5 C 261.5,115.5 259.5,116.5 257.5,117.5C 256.5,117.5 255.5,117.5 254.5,117.5C 251.517,117.898 248.517,118.232 245.5,118.5C 240.587,116.939 235.754,115.939 231,115.5C 226.599,116.711 222.265,118.044 218,119.5C 217.667,119.167 217.333,118.833 217,118.5C 212.604,121.069 208.104,123.402 203.5,125.5C 202.563,128.548 200.73,130.881 198,132.5C 197.012,135.424 196.346,138.424 196,141.5C 191.593,145.522 191.426,149.688 195.5,154C 194.707,155.085 194.04,156.252 193.5,157.5C 195.093,158.83 196.76,160.164 198.5,161.5C 198.833,162.833 199.167,164.167 199.5,165.5C 198.62,169.471 197.953,173.471 197.5,177.5C 197.5,178.833 197.5,180.167 197.5,181.5C 197.167,181.5 196.833,181.5 196.5,181.5C 196.5,178.167 196.5,174.833 196.5,171.5C 193.01,170.149 190.343,168.482 188.5,166.5C 187.5,164.5 186.5,162.5 185.5,160.5C 186.223,154.503 187.056,148.503 188,142.5C 188.667,143.833 189.333,143.833 190,142.5C 190.179,139.447 190.679,136.447 191.5,133.5C 195.364,131.477 197.364,128.31 197.5,124C 203.018,119.875 208.685,115.875 214.5,112C 221.081,111.744 227.581,110.91 234,109.5C 238.118,110.538 242.285,111.372 246.5,112C 248.324,114.61 250.824,116.11 254,116.5C 257.026,115.128 260.193,114.462 263.5,114.5 Z"/></g>
<g><path style="opacity:1" fill="#28174b" d="M 319.5,126.5 C 320.552,126.351 321.552,126.517 322.5,127C 329.306,132.473 335.473,138.64 341,145.5C 342.46,149.971 344.793,153.971 348,157.5C 350.527,162.58 352.36,167.913 353.5,173.5C 350.829,168.777 348.496,163.777 346.5,158.5C 343.343,154.874 340.177,151.207 337,147.5C 336.667,146.5 336.333,145.5 336,144.5C 330.29,140.079 324.79,135.412 319.5,130.5C 314.003,128.975 308.67,127.141 303.5,125C 293.845,123.552 284.178,123.719 274.5,125.5C 272.97,125.64 271.97,126.307 271.5,127.5C 252.767,129.283 237.267,137.283 225,151.5C 219.239,160.016 214.239,169.016 210,178.5C 208.432,185.159 208.265,191.826 209.5,198.5C 210.5,198.5 211.5,198.5 212.5,198.5C 212.011,201.324 210.344,202.657 207.5,202.5C 206.398,192.509 206.565,182.509 208,172.5C 210.318,169.027 212.151,165.361 213.5,161.5C 218.971,154.845 224.804,148.511 231,142.5C 231.312,139.691 232.812,138.024 235.5,137.5C 241.826,135.336 247.826,132.502 253.5,129C 259.61,128.218 265.277,126.385 270.5,123.5C 287.131,121.436 303.464,122.436 319.5,126.5 Z"/></g>
<g><path style="opacity:0.004" fill="#000000" d="M 408.5,137.5 C 409.833,138.167 409.833,138.167 408.5,137.5 Z"/></g>
<g><path style="opacity:0.004" fill="#000000" d="M 444.5,145.5 C 445.833,146.167 445.833,146.167 444.5,145.5 Z"/></g>
<g><path style="opacity:1" fill="#e986cc" d="M 246.5,147.5 C 251.215,147.506 255.882,148.006 260.5,149C 264.95,151.615 268.617,155.115 271.5,159.5C 275.167,160.167 278.833,160.833 282.5,161.5C 284.655,162.001 286.322,163.001 287.5,164.5C 284.461,163.99 281.461,163.323 278.5,162.5C 277.167,162.5 275.833,162.5 274.5,162.5C 269.36,161.512 264.026,161.179 258.5,161.5C 252.674,158.71 246.674,156.044 240.5,153.5C 236.691,156.826 232.691,159.826 228.5,162.5C 231.86,158.473 235.527,154.806 239.5,151.5C 241.833,150.167 244.167,148.833 246.5,147.5 Z"/></g>
<g><path style="opacity:1" fill="#a33fc2" d="M 307.5,171.5 C 306.127,171.657 304.793,171.49 303.5,171C 298.7,168.431 294.033,165.598 289.5,162.5C 293.821,161.034 294.655,158.367 292,154.5C 289.122,152.411 286.455,150.077 284,147.5C 284.148,146.175 283.982,145.008 283.5,144C 270.377,137.177 258.044,138.343 246.5,147.5C 244.167,148.833 241.833,150.167 239.5,151.5C 237.007,151.869 236.34,151.203 237.5,149.5C 245.626,142.271 254.959,137.437 265.5,135C 270.833,134.333 276.167,134.333 281.5,135C 286.106,136.59 290.772,138.09 295.5,139.5C 295.406,142.541 296.906,144.207 300,144.5C 302.792,150.204 305.959,155.704 309.5,161C 304.844,162.751 304.511,164.918 308.5,167.5C 307.754,168.736 307.421,170.07 307.5,171.5 Z"/></g>
<g><path style="opacity:1" fill="#cc61ca" d="M 307.5,171.5 C 310.058,173.116 311.724,175.45 312.5,178.5C 304.507,173.169 296.174,168.502 287.5,164.5C 286.322,163.001 284.655,162.001 282.5,161.5C 278.833,160.833 275.167,160.167 271.5,159.5C 268.617,155.115 264.95,151.615 260.5,149C 255.882,148.006 251.215,147.506 246.5,147.5C 258.044,138.343 270.377,137.177 283.5,144C 283.982,145.008 284.148,146.175 284,147.5C 286.455,150.077 289.122,152.411 292,154.5C 294.655,158.367 293.821,161.034 289.5,162.5C 294.033,165.598 298.7,168.431 303.5,171C 304.793,171.49 306.127,171.657 307.5,171.5 Z"/></g>
<g><path style="opacity:1" fill="#5c2a9b" d="M 287.5,132.5 C 290.187,132.336 292.854,132.503 295.5,133C 301.585,134.521 307.585,136.021 313.5,137.5C 315.148,138.927 317.148,139.76 319.5,140C 325.117,145.918 329.45,152.585 332.5,160C 331.644,162.949 331.311,165.783 331.5,168.5C 333.636,169.852 333.97,171.518 332.5,173.5C 335.828,178.694 334.994,183.027 330,186.5C 329.341,190.715 329.841,194.715 331.5,198.5C 328.117,195.436 325.45,191.769 323.5,187.5C 322.423,186.295 321.09,185.628 319.5,185.5C 316.882,183.548 314.548,181.215 312.5,178.5C 313.695,178.678 314.862,179.011 316,179.5C 317.091,177.654 318.424,176.987 320,177.5C 320.824,174.165 321.324,170.999 321.5,168C 320.818,164.951 319.485,162.284 317.5,160C 320.33,156.486 319.497,153.986 315,152.5C 314.667,151.167 314.333,149.833 314,148.5C 309.652,145.574 305.818,142.074 302.5,138C 297.701,135.238 292.701,133.404 287.5,132.5 Z"/></g>
<g><path style="opacity:1" fill="#f29bcc" d="M 258.5,161.5 C 244.929,162.787 233.262,168.121 223.5,177.5C 223.703,175.956 224.37,174.622 225.5,173.5C 224.617,172.452 223.95,171.285 223.5,170C 224.589,167.084 226.256,164.584 228.5,162.5C 232.691,159.826 236.691,156.826 240.5,153.5C 246.674,156.044 252.674,158.71 258.5,161.5 Z"/></g>
<g><path style="opacity:0.004" fill="#000000" d="M 55.5,160.5 C 56.8333,161.167 56.8333,161.167 55.5,160.5 Z"/></g>
<g><path style="opacity:1" fill="#5d2381" d="M 271.5,127.5 C 280.213,127.248 288.88,127.748 297.5,129C 302.398,131.396 307.398,133.563 312.5,135.5C 312.833,136.167 313.167,136.833 313.5,137.5C 307.585,136.021 301.585,134.521 295.5,133C 292.854,132.503 290.187,132.336 287.5,132.5C 273.012,130.431 259.345,132.931 246.5,140C 243.798,142.995 240.798,145.495 237.5,147.5C 234.897,150.329 232.064,152.996 229,155.5C 227.292,158.381 225.792,161.381 224.5,164.5C 223.914,164.291 223.414,163.957 223,163.5C 220.099,170.911 217.265,178.411 214.5,186C 214.667,186.5 214.833,187 215,187.5C 215.612,184.885 217.112,183.219 219.5,182.5C 216.406,187.428 214.073,192.762 212.5,198.5C 211.5,198.5 210.5,198.5 209.5,198.5C 208.265,191.826 208.432,185.159 210,178.5C 214.239,169.016 219.239,160.016 225,151.5C 237.267,137.283 252.767,129.283 271.5,127.5 Z"/></g>
<g><path style="opacity:1" fill="#a84aad" d="M 237.5,147.5 C 237.5,148.167 237.5,148.833 237.5,149.5C 236.34,151.203 237.007,151.869 239.5,151.5C 235.527,154.806 231.86,158.473 228.5,162.5C 226.256,164.584 224.589,167.084 223.5,170C 223.95,171.285 224.617,172.452 225.5,173.5C 224.37,174.622 223.703,175.956 223.5,177.5C 222.136,179.191 220.803,180.858 219.5,182.5C 217.112,183.219 215.612,184.885 215,187.5C 214.833,187 214.667,186.5 214.5,186C 217.265,178.411 220.099,170.911 223,163.5C 223.414,163.957 223.914,164.291 224.5,164.5C 225.792,161.381 227.292,158.381 229,155.5C 232.064,152.996 234.897,150.329 237.5,147.5 Z"/></g>
<g><path style="opacity:1" fill="#050f18" d="M 274.5,162.5 C 275.833,162.5 277.167,162.5 278.5,162.5C 280.649,165.026 283.315,167.026 286.5,168.5C 284.579,169.641 282.579,169.808 280.5,169C 281.993,167.844 281.826,167.01 280,166.5C 276.802,166.646 273.468,167.313 270,168.5C 266.915,168.043 263.915,167.377 261,166.5C 258.805,169.501 259.638,171.167 263.5,171.5C 265.104,172.287 265.771,173.62 265.5,175.5C 269.129,176.089 272.462,177.422 275.5,179.5C 277.716,180.203 279.549,181.536 281,183.5C 283.694,186.892 285.86,190.559 287.5,194.5C 288.91,198.227 290.244,202.061 291.5,206C 291.167,206.5 290.833,207 290.5,207.5C 289.833,206.5 289.167,205.5 288.5,204.5C 286.359,214.131 284.026,223.464 281.5,232.5C 281.267,234.062 280.6,235.395 279.5,236.5C 272.742,243.215 264.742,247.882 255.5,250.5C 250.524,251.498 245.524,251.998 240.5,252C 239.167,251.333 239.167,250.667 240.5,250C 245.509,248.781 245.176,247.947 239.5,247.5C 234.321,245.995 229.987,243.162 226.5,239C 224.866,238.506 223.199,238.34 221.5,238.5C 217.443,233.491 213.443,228.491 209.5,223.5C 208.348,220.894 208.182,218.227 209,215.5C 210.087,217.932 210.587,217.598 210.5,214.5C 208.516,214.383 206.85,215.05 205.5,216.5C 204.522,216.023 203.689,215.357 203,214.5C 201.941,209.384 200.607,204.384 199,199.5C 198.333,192.5 198.333,185.5 199,178.5C 199.333,178.833 199.667,179.167 200,179.5C 200.333,177.167 200.667,174.833 201,172.5C 204.123,170.411 204.29,171.078 201.5,174.5C 201.97,175.463 202.637,175.463 203.5,174.5C 203.804,175.15 204.137,175.817 204.5,176.5C 203.297,180.11 202.297,183.777 201.5,187.5C 202.605,195.061 203.938,202.561 205.5,210C 206.333,211.5 207.5,212.667 209,213.5C 209.945,213.095 210.612,212.428 211,211.5C 211.333,211.833 211.667,212.167 212,212.5C 213.147,203.382 215.48,194.382 219,185.5C 220.719,182.781 223.053,180.781 226,179.5C 226.273,177.671 227.107,176.171 228.5,175C 230.87,172.63 233.704,171.13 237,170.5C 238.895,170.615 240.562,171.282 242,172.5C 242.684,171.216 242.517,170.049 241.5,169C 252.372,165.083 263.372,162.916 274.5,162.5 Z"/></g>
<g><path style="opacity:1" fill="#8434b3" d="M 287.5,132.5 C 292.701,133.404 297.701,135.238 302.5,138C 305.818,142.074 309.652,145.574 314,148.5C 314.333,149.833 314.667,151.167 315,152.5C 319.497,153.986 320.33,156.486 317.5,160C 319.485,162.284 320.818,164.951 321.5,168C 321.324,170.999 320.824,174.165 320,177.5C 318.424,176.987 317.091,177.654 316,179.5C 314.862,179.011 313.695,178.678 312.5,178.5C 311.724,175.45 310.058,173.116 307.5,171.5C 307.421,170.07 307.754,168.736 308.5,167.5C 304.511,164.918 304.844,162.751 309.5,161C 305.959,155.704 302.792,150.204 300,144.5C 296.906,144.207 295.406,142.541 295.5,139.5C 290.772,138.09 286.106,136.59 281.5,135C 276.167,134.333 270.833,134.333 265.5,135C 254.959,137.437 245.626,142.271 237.5,149.5C 237.5,148.833 237.5,148.167 237.5,147.5C 240.798,145.495 243.798,142.995 246.5,140C 259.345,132.931 273.012,130.431 287.5,132.5 Z"/></g>
<g><path style="opacity:0.004" fill="#000000" d="M 409.5,170.5 C 410.833,171.167 410.833,171.167 409.5,170.5 Z"/></g>
<g><path style="opacity:1" fill="#1e1e4d" d="M 351.5,134.5 C 355.156,137.803 357.822,141.803 359.5,146.5C 360.65,151.453 362.484,156.12 365,160.5C 365.945,164.114 366.612,167.781 367,171.5C 367.333,171.167 367.667,170.833 368,170.5C 369.857,172.947 369.69,175.113 367.5,177C 368.72,187.252 369.387,197.752 369.5,208.5C 369.333,213.833 369.167,219.167 369,224.5C 368.79,226.058 368.29,227.391 367.5,228.5C 368.514,219.523 368.681,210.523 368,201.5C 367.826,206.684 367.326,211.684 366.5,216.5C 369.099,186.985 361.433,160.652 343.5,137.5C 346.26,138.423 348.26,140.256 349.5,143C 351.134,143.494 352.801,143.66 354.5,143.5C 352.726,140.882 351.726,137.882 351.5,134.5 Z"/></g>
<g><path style="opacity:1" fill="#2e1f6a" d="M 353.5,173.5 C 354.315,174.429 355.148,175.429 356,176.5C 357.476,181.406 358.476,186.406 359,191.5C 359.667,204.167 359.667,216.833 359,229.5C 358.206,232.471 357.539,235.471 357,238.5C 356.617,239.056 356.117,239.389 355.5,239.5C 355.219,234.692 355.886,230.026 357.5,225.5C 355.85,223.05 354.683,220.383 354,217.5C 353.667,217.833 353.333,218.167 353,218.5C 346.96,209.73 344.793,200.064 346.5,189.5C 345.287,182.841 344.12,176.174 343,169.5C 341.168,164.513 339.668,159.513 338.5,154.5C 337.5,154.5 336.5,154.5 335.5,154.5C 335.452,151.365 333.785,149.698 330.5,149.5C 328.585,147.929 327.585,145.929 327.5,143.5C 326.127,143.657 324.793,143.49 323.5,143C 320.844,139.006 317.178,136.506 312.5,135.5C 307.398,133.563 302.398,131.396 297.5,129C 288.88,127.748 280.213,127.248 271.5,127.5C 271.97,126.307 272.97,125.64 274.5,125.5C 284.178,123.719 293.845,123.552 303.5,125C 308.67,127.141 314.003,128.975 319.5,130.5C 324.79,135.412 330.29,140.079 336,144.5C 336.333,145.5 336.667,146.5 337,147.5C 340.177,151.207 343.343,154.874 346.5,158.5C 348.496,163.777 350.829,168.777 353.5,173.5 Z"/></g>
<g><path style="opacity:0.004" fill="#000000" d="M 396.5,175.5 C 397.833,176.167 397.833,176.167 396.5,175.5 Z"/></g>
<g><path style="opacity:1" fill="#9047a8" d="M 133.5,181.5 C 133.5,181.833 133.5,182.167 133.5,182.5C 131.192,186.047 130.025,190.047 130,194.5C 129.167,195.5 128.333,196.5 127.5,197.5C 126.824,196.398 126.158,195.398 125.5,194.5C 125.391,184.923 128.058,176.257 133.5,168.5C 133.833,169.667 134.167,170.833 134.5,172C 133.893,175.143 133.559,178.31 133.5,181.5 Z"/></g>
<g><path style="opacity:1" fill="#a95bc3" d="M 281.5,177.5 C 287.843,182.843 293.509,188.843 298.5,195.5C 298.047,196.458 297.381,197.292 296.5,198C 296.423,202.648 296.757,207.482 297.5,212.5C 295.538,208.452 294.038,204.119 293,199.5C 292.583,198.244 291.75,197.577 290.5,197.5C 289.272,196.694 288.272,195.694 287.5,194.5C 285.86,190.559 283.694,186.892 281,183.5C 279.549,181.536 277.716,180.203 275.5,179.5C 275.167,178.833 274.833,178.167 274.5,177.5C 272.946,176.105 273.279,175.439 275.5,175.5C 277.516,176.178 279.516,176.844 281.5,177.5 Z"/></g>
<g><path style="opacity:0.345" fill="#975ea5" d="M 137.5,167.5 C 136.332,172.324 134.998,176.991 133.5,181.5C 133.559,178.31 133.893,175.143 134.5,172C 134.167,170.833 133.833,169.667 133.5,168.5C 128.058,176.257 125.391,184.923 125.5,194.5C 124.833,202.167 124.167,209.833 123.5,217.5C 122.189,202.92 123.522,188.587 127.5,174.5C 128.458,174.047 129.292,173.381 130,172.5C 132.071,166.785 134.238,161.118 136.5,155.5C 137.167,155.167 137.833,154.833 138.5,154.5C 138.833,155.667 139.167,156.833 139.5,158C 138.678,161.141 138.011,164.307 137.5,167.5 Z"/></g>
<g><path style="opacity:1" fill="#f2f7f9" d="M 235.5,180.5 C 246.646,181.483 251.146,187.483 249,198.5C 245.28,207.111 238.78,210.611 229.5,209C 219.265,201.197 218.931,192.864 228.5,184C 230.925,182.787 233.259,181.621 235.5,180.5 Z"/></g>
<g><path style="opacity:0.004" fill="#000000" d="M 34.5,189.5 C 35.8333,190.167 35.8333,190.167 34.5,189.5 Z"/></g>
<g><path style="opacity:1" fill="#c961c1" d="M 196.5,191.5 C 196.5,188.167 196.5,184.833 196.5,181.5C 196.833,181.5 197.167,181.5 197.5,181.5C 196.591,193.14 197.924,204.474 201.5,215.5C 197.132,212.726 195.465,208.726 196.5,203.5C 195.5,203.5 194.5,203.5 193.5,203.5C 192.5,208.833 191.5,208.833 190.5,203.5C 188.692,203.509 187.025,203.009 185.5,202C 183.631,198.052 180.964,194.885 177.5,192.5C 173.332,181.669 169.998,170.669 167.5,159.5C 166.52,151.856 166.353,144.189 167,136.5C 168.045,135.627 168.878,134.627 169.5,133.5C 172.833,130.5 176.167,127.5 179.5,124.5C 181.144,124.714 182.644,124.38 184,123.5C 184.374,124.416 184.874,125.25 185.5,126C 181.951,130.26 178.284,134.427 174.5,138.5C 172.319,153.485 173.486,168.152 178,182.5C 179.713,183.878 181.047,185.545 182,187.5C 183.008,187.982 184.175,188.148 185.5,188C 186.167,189 186.833,190 187.5,191C 192.152,190.651 194.652,192.817 195,197.5C 196.319,195.75 196.819,193.75 196.5,191.5 Z"/></g>
<g><path style="opacity:1" fill="#3a2685" d="M 312.5,135.5 C 317.178,136.506 320.844,139.006 323.5,143C 324.793,143.49 326.127,143.657 327.5,143.5C 327.585,145.929 328.585,147.929 330.5,149.5C 333.785,149.698 335.452,151.365 335.5,154.5C 336.5,154.5 337.5,154.5 338.5,154.5C 339.668,159.513 341.168,164.513 343,169.5C 344.12,176.174 345.287,182.841 346.5,189.5C 344.793,200.064 346.96,209.73 353,218.5C 353.333,218.167 353.667,217.833 354,217.5C 354.683,220.383 355.85,223.05 357.5,225.5C 355.886,230.026 355.219,234.692 355.5,239.5C 354.858,245.478 352.858,250.812 349.5,255.5C 348.692,234.747 342.692,215.747 331.5,198.5C 329.841,194.715 329.341,190.715 330,186.5C 334.994,183.027 335.828,178.694 332.5,173.5C 333.97,171.518 333.636,169.852 331.5,168.5C 331.311,165.783 331.644,162.949 332.5,160C 329.45,152.585 325.117,145.918 319.5,140C 317.148,139.76 315.148,138.927 313.5,137.5C 313.167,136.833 312.833,136.167 312.5,135.5 Z"/></g>
<g><path style="opacity:1" fill="#1a1436" d="M 165.5,136.5 C 163.874,152.108 163.374,167.775 164,183.5C 165.547,188.784 166.88,194.118 168,199.5C 168.71,200.973 169.876,201.64 171.5,201.5C 172.782,207.009 174.449,212.342 176.5,217.5C 174.896,216.713 174.229,215.38 174.5,213.5C 171.159,214.157 169.159,212.824 168.5,209.5C 166.755,202.35 164.589,195.35 162,188.5C 160.165,176.51 160.165,164.51 162,152.5C 162.915,151.672 163.581,150.672 164,149.5C 164.175,144.981 164.675,140.647 165.5,136.5 Z"/></g>
<g><path style="opacity:0.004" fill="#000000" d="M 66.5,198.5 C 67.8333,199.167 67.8333,199.167 66.5,198.5 Z"/></g>
<g><path style="opacity:1" fill="#171640" d="M 337.5,232.5 C 336.467,229.143 334.134,227.143 330.5,226.5C 329.253,224.958 329.253,223.458 330.5,222C 328.346,219.335 326.346,216.501 324.5,213.5C 323.311,212.571 321.978,212.238 320.5,212.5C 320.811,206.638 318.144,202.804 312.5,201C 312.5,200 312.5,199 312.5,198C 305.941,191.944 299.941,185.444 294.5,178.5C 291.397,178.077 288.564,177.077 286,175.5C 283.427,176.983 281.26,176.483 279.5,174C 276.854,173.503 274.187,173.336 271.5,173.5C 271.088,175.973 272.088,177.306 274.5,177.5C 274.833,178.167 275.167,178.833 275.5,179.5C 272.462,177.422 269.129,176.089 265.5,175.5C 265.771,173.62 265.104,172.287 263.5,171.5C 263.611,170.883 263.944,170.383 264.5,170C 272.904,169.85 281.237,170.684 289.5,172.5C 288.975,173.192 288.308,173.692 287.5,174C 289.556,174.311 291.556,174.811 293.5,175.5C 297.247,178.687 300.914,181.853 304.5,185C 305.938,185.219 307.271,185.719 308.5,186.5C 312.776,192.114 317.443,197.447 322.5,202.5C 324.011,207.499 326.844,211.499 331,214.5C 334.087,220.193 336.254,226.193 337.5,232.5 Z"/></g>
<g><path style="opacity:0.004" fill="#000000" d="M 114.5,205.5 C 115.833,206.167 115.833,206.167 114.5,205.5 Z"/></g>
<g><path style="opacity:1" fill="#7b3db4" d="M 298.5,195.5 C 299.794,196.29 300.961,197.29 302,198.5C 302.986,201.806 304.486,204.806 306.5,207.5C 306.296,210.545 306.296,213.379 306.5,216C 305.874,216.75 305.374,217.584 305,218.5C 304.077,217.241 303.243,215.908 302.5,214.5C 301.719,215.729 301.219,217.062 301,218.5C 300.23,219.598 299.397,219.598 298.5,218.5C 298.737,217.209 298.404,216.209 297.5,215.5C 297.5,214.5 297.5,213.5 297.5,212.5C 296.757,207.482 296.423,202.648 296.5,198C 297.381,197.292 298.047,196.458 298.5,195.5 Z"/></g>
<g><path style="opacity:1" fill="#120f25" d="M 213.5,161.5 C 212.151,165.361 210.318,169.027 208,172.5C 206.565,182.509 206.398,192.509 207.5,202.5C 210.344,202.657 212.011,201.324 212.5,198.5C 214.073,192.762 216.406,187.428 219.5,182.5C 220.803,180.858 222.136,179.191 223.5,177.5C 233.262,168.121 244.929,162.787 258.5,161.5C 264.026,161.179 269.36,161.512 274.5,162.5C 263.372,162.916 252.372,165.083 241.5,169C 242.517,170.049 242.684,171.216 242,172.5C 240.562,171.282 238.895,170.615 237,170.5C 233.704,171.13 230.87,172.63 228.5,175C 227.107,176.171 226.273,177.671 226,179.5C 223.053,180.781 220.719,182.781 219,185.5C 215.48,194.382 213.147,203.382 212,212.5C 211.667,212.167 211.333,211.833 211,211.5C 210.612,212.428 209.945,213.095 209,213.5C 207.5,212.667 206.333,211.5 205.5,210C 203.938,202.561 202.605,195.061 201.5,187.5C 202.297,183.777 203.297,180.11 204.5,176.5C 204.137,175.817 203.804,175.15 203.5,174.5C 204.222,174.082 204.722,173.416 205,172.5C 205.333,172.833 205.667,173.167 206,173.5C 207.136,169.757 208.47,166.09 210,162.5C 211.011,161.663 212.178,161.33 213.5,161.5 Z"/></g>
<g><path style="opacity:0.004" fill="#000000" d="M 398.5,211.5 C 399.833,212.167 399.833,212.167 398.5,211.5 Z"/></g>
<g><path style="opacity:0.004" fill="#000000" d="M 403.5,211.5 C 404.833,212.167 404.833,212.167 403.5,211.5 Z"/></g>
<g><path style="opacity:1" fill="#532084" d="M 167.5,159.5 C 169.998,170.669 173.332,181.669 177.5,192.5C 182.307,203.286 188.307,213.286 195.5,222.5C 198.619,226.438 201.952,230.105 205.5,233.5C 198.945,231.448 194.445,227.114 192,220.5C 186.848,217.865 183.348,213.865 181.5,208.5C 180.758,207.713 179.925,207.047 179,206.5C 176.296,201.091 173.629,195.758 171,190.5C 169.612,180.177 168.445,169.844 167.5,159.5 Z"/></g>
<g><path style="opacity:1" fill="#321a5f" d="M 168.5,133.5 C 168.833,133.5 169.167,133.5 169.5,133.5C 168.878,134.627 168.045,135.627 167,136.5C 166.353,144.189 166.52,151.856 167.5,159.5C 168.445,169.844 169.612,180.177 171,190.5C 173.629,195.758 176.296,201.091 179,206.5C 179.925,207.047 180.758,207.713 181.5,208.5C 183.348,213.865 186.848,217.865 192,220.5C 194.445,227.114 198.945,231.448 205.5,233.5C 208.857,235.866 212.19,238.199 215.5,240.5C 210.522,238.346 205.522,236.179 200.5,234C 198.91,232.954 197.41,231.787 196,230.5C 195.667,230.833 195.333,231.167 195,231.5C 193.705,229.878 192.205,228.545 190.5,227.5C 189.558,227.608 188.725,227.941 188,228.5C 187.333,226.5 186.667,224.5 186,222.5C 185.15,223.424 184.15,223.424 183,222.5C 181.243,220.235 179.076,218.569 176.5,217.5C 174.449,212.342 172.782,207.009 171.5,201.5C 169.876,201.64 168.71,200.973 168,199.5C 166.88,194.118 165.547,188.784 164,183.5C 163.374,167.775 163.874,152.108 165.5,136.5C 166.167,135.167 167.167,134.167 168.5,133.5 Z"/></g>
<g><path style="opacity:1" fill="#9c49be" d="M 177.5,192.5 C 180.964,194.885 183.631,198.052 185.5,202C 187.025,203.009 188.692,203.509 190.5,203.5C 191.5,208.833 192.5,208.833 193.5,203.5C 194.5,203.5 195.5,203.5 196.5,203.5C 195.465,208.726 197.132,212.726 201.5,215.5C 201.387,218.049 202.054,220.382 203.5,222.5C 200.844,223.614 198.177,223.614 195.5,222.5C 188.307,213.286 182.307,203.286 177.5,192.5 Z"/></g>
<g><path style="opacity:1" fill="#221c58" d="M 337.5,232.5 C 337.268,236.457 338.101,240.124 340,243.5C 340.5,252.494 340.666,261.494 340.5,270.5C 340.167,270.5 339.833,270.5 339.5,270.5C 339.5,265.5 339.5,260.5 339.5,255.5C 339.142,243.59 334.308,233.923 325,226.5C 324.517,225.552 324.351,224.552 324.5,223.5C 322.328,222.199 319.995,221.199 317.5,220.5C 315.337,216.744 313.337,212.744 311.5,208.5C 307.893,203.051 304.059,197.717 300,192.5C 295.755,189.924 292.588,186.424 290.5,182C 287.144,181.128 284.144,179.628 281.5,177.5C 279.516,176.844 277.516,176.178 275.5,175.5C 273.279,175.439 272.946,176.105 274.5,177.5C 272.088,177.306 271.088,175.973 271.5,173.5C 274.187,173.336 276.854,173.503 279.5,174C 281.26,176.483 283.427,176.983 286,175.5C 288.564,177.077 291.397,178.077 294.5,178.5C 299.941,185.444 305.941,191.944 312.5,198C 312.5,199 312.5,200 312.5,201C 318.144,202.804 320.811,206.638 320.5,212.5C 321.978,212.238 323.311,212.571 324.5,213.5C 326.346,216.501 328.346,219.335 330.5,222C 329.253,223.458 329.253,224.958 330.5,226.5C 334.134,227.143 336.467,229.143 337.5,232.5 Z"/></g>
<g><path style="opacity:0.004" fill="#000000" d="M 35.5,231.5 C 36.8333,232.167 36.8333,232.167 35.5,231.5 Z"/></g>
<g><path style="opacity:1" fill="#4b2d82" d="M 133.5,182.5 C 132.35,188.102 131.684,193.769 131.5,199.5C 130.611,213.937 130.611,228.437 131.5,243C 132,243.5 132.5,244 133,244.5C 133.333,243.167 133.667,241.833 134,240.5C 134.458,243.181 135.291,245.681 136.5,248C 136.349,250.644 135.349,252.811 133.5,254.5C 132.85,252.816 131.85,251.483 130.5,250.5C 126.013,240.072 123.68,229.072 123.5,217.5C 124.167,209.833 124.833,202.167 125.5,194.5C 126.158,195.398 126.824,196.398 127.5,197.5C 128.333,196.5 129.167,195.5 130,194.5C 130.025,190.047 131.192,186.047 133.5,182.5 Z"/></g>
<g><path style="opacity:1" fill="#2b2173" d="M 281.5,177.5 C 284.144,179.628 287.144,181.128 290.5,182C 292.588,186.424 295.755,189.924 300,192.5C 304.059,197.717 307.893,203.051 311.5,208.5C 313.337,212.744 315.337,216.744 317.5,220.5C 319.995,221.199 322.328,222.199 324.5,223.5C 324.351,224.552 324.517,225.552 325,226.5C 334.308,233.923 339.142,243.59 339.5,255.5C 333.092,250.094 326.759,244.428 320.5,238.5C 316.595,227.7 311.928,217.367 306.5,207.5C 304.486,204.806 302.986,201.806 302,198.5C 300.961,197.29 299.794,196.29 298.5,195.5C 293.509,188.843 287.843,182.843 281.5,177.5 Z"/></g>
<g><path style="opacity:1" fill="#8265c1" d="M 319.5,185.5 C 321.09,185.628 322.423,186.295 323.5,187.5C 325.45,191.769 328.117,195.436 331.5,198.5C 342.692,215.747 348.692,234.747 349.5,255.5C 349.649,256.552 349.483,257.552 349,258.5C 347.798,251.181 346.465,243.848 345,236.5C 340.725,217.284 332.225,200.284 319.5,185.5 Z"/></g>
<g><path style="opacity:1" fill="#0a101d" d="M 168.5,133.5 C 167.167,134.167 166.167,135.167 165.5,136.5C 164.675,140.647 164.175,144.981 164,149.5C 163.581,150.672 162.915,151.672 162,152.5C 160.165,164.51 160.165,176.51 162,188.5C 164.589,195.35 166.755,202.35 168.5,209.5C 169.159,212.824 171.159,214.157 174.5,213.5C 174.229,215.38 174.896,216.713 176.5,217.5C 177.931,219.189 178.764,221.189 179,223.5C 185.78,231.379 193.613,238.045 202.5,243.5C 201.277,244.614 199.944,244.781 198.5,244C 195.783,241.142 192.45,239.642 188.5,239.5C 184.263,236.772 180.429,233.439 177,229.5C 173.257,225.268 169.757,220.935 166.5,216.5C 163.907,211.647 161.574,206.647 159.5,201.5C 156.56,193.073 154.893,184.406 154.5,175.5C 154.437,166.078 154.937,156.745 156,147.5C 152.201,154.102 148.701,160.768 145.5,167.5C 142.89,172.891 140.723,178.557 139,184.5C 138.878,191.694 137.711,198.694 135.5,205.5C 137.595,216.475 139.762,227.475 142,238.5C 143.938,244.073 146.271,249.406 149,254.5C 149.708,255.381 150.542,256.047 151.5,256.5C 151.5,256.833 151.5,257.167 151.5,257.5C 155.078,264.261 158.911,270.928 163,277.5C 166.339,279.673 169.172,282.34 171.5,285.5C 174.833,287.405 178.166,289.071 181.5,290.5C 197.583,293.971 213.916,294.471 230.5,292C 233.609,291.304 236.442,290.138 239,288.5C 239.333,288.833 239.667,289.167 240,289.5C 248,285.898 255.167,280.898 261.5,274.5C 262.386,273.675 262.719,272.675 262.5,271.5C 268.898,270.898 268.898,269.565 262.5,267.5C 261.571,266.311 261.238,264.978 261.5,263.5C 265.127,264.847 268.46,266.513 271.5,268.5C 271.5,266.833 271.5,265.167 271.5,263.5C 270.5,263.5 269.5,263.5 268.5,263.5C 268.5,262.5 268.5,261.5 268.5,260.5C 269.93,260.421 271.264,260.754 272.5,261.5C 274.915,256.978 278.415,253.644 283,251.5C 284.026,246.085 286.026,241.085 289,236.5C 291.601,227.181 291.934,217.848 290,208.5C 289.517,209.448 289.351,210.448 289.5,211.5C 288.782,219.331 286.116,226.331 281.5,232.5C 284.026,223.464 286.359,214.131 288.5,204.5C 289.167,205.5 289.833,206.5 290.5,207.5C 290.833,207 291.167,206.5 291.5,206C 290.244,202.061 288.91,198.227 287.5,194.5C 288.272,195.694 289.272,196.694 290.5,197.5C 301.144,244.376 284.144,276.876 239.5,295C 234.218,296.489 228.884,297.656 223.5,298.5C 214.196,299.496 204.862,300.163 195.5,300.5C 195.33,301.822 195.663,302.989 196.5,304C 200.233,305.866 203.899,307.7 207.5,309.5C 212.208,311.504 216.875,313.504 221.5,315.5C 229.76,317.338 238.26,318.338 247,318.5C 256.545,317.905 266.045,316.905 275.5,315.5C 279.322,314.349 283.155,313.016 287,311.5C 289.782,312.472 292.615,313.305 295.5,314C 293.569,314.902 291.903,316.069 290.5,317.5C 287.135,319.462 283.468,320.962 279.5,322C 248.329,329.024 218.662,325.19 190.5,310.5C 171.738,298.072 156.405,282.406 144.5,263.5C 141.012,254.713 137.845,245.713 135,236.5C 131.963,224.355 130.796,212.022 131.5,199.5C 131.684,193.769 132.35,188.102 133.5,182.5C 133.5,182.167 133.5,181.833 133.5,181.5C 134.998,176.991 136.332,172.324 137.5,167.5C 139.979,161.875 142.979,156.542 146.5,151.5C 147.482,150.859 148.482,150.193 149.5,149.5C 151.961,145.205 154.627,141.038 157.5,137C 158.744,136.544 159.577,137.044 160,138.5C 162.006,135.328 164.506,132.662 167.5,130.5C 168.386,131.325 168.719,132.325 168.5,133.5 Z"/></g>
<g><path style="opacity:1" fill="#1a1844" d="M 176.5,217.5 C 179.076,218.569 181.243,220.235 183,222.5C 184.15,223.424 185.15,223.424 186,222.5C 186.667,224.5 187.333,226.5 188,228.5C 188.725,227.941 189.558,227.608 190.5,227.5C 192.205,228.545 193.705,229.878 195,231.5C 195.333,231.167 195.667,230.833 196,230.5C 197.41,231.787 198.91,232.954 200.5,234C 205.522,236.179 210.522,238.346 215.5,240.5C 219.578,241.702 223.578,243.202 227.5,245C 228.833,245.667 230.167,245.667 231.5,245C 227.931,243.058 224.598,240.892 221.5,238.5C 223.199,238.34 224.866,238.506 226.5,239C 229.987,243.162 234.321,245.995 239.5,247.5C 236.679,249.413 233.346,250.413 229.5,250.5C 220.518,249.419 211.852,247.419 203.5,244.5C 203.5,245.833 203.5,247.167 203.5,248.5C 197.995,246.251 192.995,243.251 188.5,239.5C 192.45,239.642 195.783,241.142 198.5,244C 199.944,244.781 201.277,244.614 202.5,243.5C 193.613,238.045 185.78,231.379 179,223.5C 178.764,221.189 177.931,219.189 176.5,217.5 Z"/></g>
<g><path style="opacity:1" fill="#a672c4" d="M 289.5,211.5 C 291.249,221.164 288.916,229.831 282.5,237.5C 280.833,238.833 279.167,240.167 277.5,241.5C 278.167,239.833 278.833,238.167 279.5,236.5C 280.6,235.395 281.267,234.062 281.5,232.5C 286.116,226.331 288.782,219.331 289.5,211.5 Z"/></g>
<g><path style="opacity:1" fill="#622ea3" d="M 140.5,197.5 C 143.797,209.308 150.463,218.808 160.5,226C 163.403,226.569 165.403,228.235 166.5,231C 168.677,232.202 171.011,232.702 173.5,232.5C 172.447,229.393 171.114,226.393 169.5,223.5C 172.897,228.401 176.897,232.901 181.5,237C 187.392,241.436 193.392,245.602 199.5,249.5C 195.576,250.165 191.576,249.998 187.5,249C 183.841,246.167 179.841,243.834 175.5,242C 170.98,241.4 166.647,240.233 162.5,238.5C 159.386,235.292 156.053,232.292 152.5,229.5C 151.167,226.833 149.833,224.167 148.5,221.5C 146.142,219.976 144.309,217.976 143,215.5C 141.05,209.679 140.217,203.679 140.5,197.5 Z"/></g>
<g><path style="opacity:1" fill="#121333" d="M 145.5,167.5 C 145.037,170.221 144.371,172.888 143.5,175.5C 143.5,175.833 143.5,176.167 143.5,176.5C 141.125,181.089 140.125,186.089 140.5,191.5C 139.511,196.975 139.178,202.642 139.5,208.5C 139.288,216.292 140.121,223.959 142,231.5C 145.27,239.812 148.437,248.146 151.5,256.5C 150.542,256.047 149.708,255.381 149,254.5C 146.271,249.406 143.938,244.073 142,238.5C 139.762,227.475 137.595,216.475 135.5,205.5C 137.711,198.694 138.878,191.694 139,184.5C 140.723,178.557 142.89,172.891 145.5,167.5 Z"/></g>
<g><path style="opacity:1" fill="#6c3ca7" d="M 201.5,215.5 C 204.412,220.263 207.579,224.929 211,229.5C 214.083,233.016 217.583,236.016 221.5,238.5C 224.598,240.892 227.931,243.058 231.5,245C 230.167,245.667 228.833,245.667 227.5,245C 223.578,243.202 219.578,241.702 215.5,240.5C 212.19,238.199 208.857,235.866 205.5,233.5C 201.952,230.105 198.619,226.438 195.5,222.5C 198.177,223.614 200.844,223.614 203.5,222.5C 202.054,220.382 201.387,218.049 201.5,215.5 Z"/></g>
<g><path style="opacity:1" fill="#8036b2" d="M 140.5,191.5 C 142.197,193.305 143.03,195.639 143,198.5C 146.045,200.719 147.211,203.719 146.5,207.5C 148.167,207.5 149.833,207.5 151.5,207.5C 152.435,210.919 154.768,212.753 158.5,213C 161.021,216.811 164.021,219.978 167.5,222.5C 168.167,222.833 168.833,223.167 169.5,223.5C 171.114,226.393 172.447,229.393 173.5,232.5C 171.011,232.702 168.677,232.202 166.5,231C 165.403,228.235 163.403,226.569 160.5,226C 150.463,218.808 143.797,209.308 140.5,197.5C 140.5,195.5 140.5,193.5 140.5,191.5 Z"/></g>
<g><path style="opacity:1" fill="#a148bc" d="M 143.5,176.5 C 142.828,179.908 143.828,182.575 146.5,184.5C 147.108,188.064 148.275,191.397 150,194.5C 151.113,195.711 152.28,195.711 153.5,194.5C 154.816,197.494 156.816,199.828 159.5,201.5C 161.574,206.647 163.907,211.647 166.5,216.5C 167.15,218.435 167.483,220.435 167.5,222.5C 164.021,219.978 161.021,216.811 158.5,213C 154.768,212.753 152.435,210.919 151.5,207.5C 149.833,207.5 148.167,207.5 146.5,207.5C 147.211,203.719 146.045,200.719 143,198.5C 143.03,195.639 142.197,193.305 140.5,191.5C 140.125,186.089 141.125,181.089 143.5,176.5 Z"/></g>
<g><path style="opacity:1" fill="#ca67c0" d="M 154.5,175.5 C 154.893,184.406 156.56,193.073 159.5,201.5C 156.816,199.828 154.816,197.494 153.5,194.5C 152.28,195.711 151.113,195.711 150,194.5C 148.275,191.397 147.108,188.064 146.5,184.5C 143.828,182.575 142.828,179.908 143.5,176.5C 143.5,176.167 143.5,175.833 143.5,175.5C 145.053,172.76 146.886,170.093 149,167.5C 150.731,169.862 151.565,172.529 151.5,175.5C 152.5,175.5 153.5,175.5 154.5,175.5 Z"/></g>
<g><path style="opacity:1" fill="#d78fc1" d="M 154.5,175.5 C 153.5,175.5 152.5,175.5 151.5,175.5C 151.565,172.529 150.731,169.862 149,167.5C 146.886,170.093 145.053,172.76 143.5,175.5C 144.371,172.888 145.037,170.221 145.5,167.5C 148.701,160.768 152.201,154.102 156,147.5C 154.937,156.745 154.437,166.078 154.5,175.5 Z"/></g>
<g><path style="opacity:1" fill="#342475" d="M 297.5,215.5 C 298.404,216.209 298.737,217.209 298.5,218.5C 299.224,222.504 300.057,226.504 301,230.5C 302.645,230.693 304.479,230.86 306.5,231C 308.31,233.592 309.644,236.426 310.5,239.5C 307.722,239.978 305.722,238.978 304.5,236.5C 304.167,237 303.833,237.5 303.5,238C 304.885,239.597 305.551,241.43 305.5,243.5C 304.167,243.5 302.833,243.5 301.5,243.5C 301.762,244.978 301.429,246.311 300.5,247.5C 295.615,253.965 290.282,259.965 284.5,265.5C 294.45,250.369 298.783,233.702 297.5,215.5 Z"/></g>
<g><path style="opacity:0.004" fill="#000000" d="M 494.5,250.5 C 495.833,251.167 495.833,251.167 494.5,250.5 Z"/></g>
<g><path style="opacity:1" fill="#825bb5" d="M 166.5,216.5 C 169.757,220.935 173.257,225.268 177,229.5C 180.429,233.439 184.263,236.772 188.5,239.5C 192.995,243.251 197.995,246.251 203.5,248.5C 210.314,252.039 217.648,254.039 225.5,254.5C 231.31,255.49 237.31,255.823 243.5,255.5C 236.011,256.656 228.345,256.822 220.5,256C 213.32,254.328 206.32,252.162 199.5,249.5C 193.392,245.602 187.392,241.436 181.5,237C 176.897,232.901 172.897,228.401 169.5,223.5C 168.833,223.167 168.167,222.833 167.5,222.5C 167.483,220.435 167.15,218.435 166.5,216.5 Z"/></g>
<g><path style="opacity:1" fill="#c099d8" d="M 279.5,236.5 C 278.833,238.167 278.167,239.833 277.5,241.5C 267.432,249.082 256.099,253.749 243.5,255.5C 237.31,255.823 231.31,255.49 225.5,254.5C 235.892,254.978 245.892,253.645 255.5,250.5C 264.742,247.882 272.742,243.215 279.5,236.5 Z"/></g>
<g><path style="opacity:1" fill="#4a2a97" d="M 282.5,237.5 C 280.005,243.141 276.505,248.141 272,252.5C 268.845,256.503 265.012,259.503 260.5,261.5C 255.881,263.16 251.214,264.826 246.5,266.5C 244.389,266.514 242.555,265.848 241,264.5C 237.345,265.029 234.011,264.029 231,261.5C 229.915,262.293 228.748,262.96 227.5,263.5C 225.138,263.443 222.805,263.443 220.5,263.5C 217.937,263.263 217.937,262.763 220.5,262C 205.24,260.578 190.574,256.911 176.5,251C 173.656,248.409 170.323,246.575 166.5,245.5C 164.995,243.496 163.328,241.663 161.5,240C 161.57,239.235 161.903,238.735 162.5,238.5C 166.647,240.233 170.98,241.4 175.5,242C 179.841,243.834 183.841,246.167 187.5,249C 191.576,249.998 195.576,250.165 199.5,249.5C 206.32,252.162 213.32,254.328 220.5,256C 228.345,256.822 236.011,256.656 243.5,255.5C 256.099,253.749 267.432,249.082 277.5,241.5C 279.167,240.167 280.833,238.833 282.5,237.5 Z"/></g>
<g><path style="opacity:1" fill="#120e25" d="M 239.5,247.5 C 245.176,247.947 245.509,248.781 240.5,250C 239.167,250.667 239.167,251.333 240.5,252C 245.524,251.998 250.524,251.498 255.5,250.5C 245.892,253.645 235.892,254.978 225.5,254.5C 217.648,254.039 210.314,252.039 203.5,248.5C 203.5,247.167 203.5,245.833 203.5,244.5C 211.852,247.419 220.518,249.419 229.5,250.5C 233.346,250.413 236.679,249.413 239.5,247.5 Z"/></g>
<g><path style="opacity:1" fill="#443aa2" d="M 306.5,207.5 C 311.928,217.367 316.595,227.7 320.5,238.5C 326.759,244.428 333.092,250.094 339.5,255.5C 339.5,260.5 339.5,265.5 339.5,270.5C 338.189,273.135 336.522,275.469 334.5,277.5C 332.988,279.317 330.988,280.317 328.5,280.5C 328.716,278.319 327.883,276.653 326,275.5C 325.692,276.308 325.192,276.975 324.5,277.5C 323.534,275.604 323.201,273.604 323.5,271.5C 322.5,271.5 321.5,271.5 320.5,271.5C 319.321,263.789 317.821,256.123 316,248.5C 315.623,247.058 314.79,246.058 313.5,245.5C 312.87,243.25 311.87,241.25 310.5,239.5C 309.644,236.426 308.31,233.592 306.5,231C 304.479,230.86 302.645,230.693 301,230.5C 300.057,226.504 299.224,222.504 298.5,218.5C 299.397,219.598 300.23,219.598 301,218.5C 301.219,217.062 301.719,215.729 302.5,214.5C 303.243,215.908 304.077,217.241 305,218.5C 305.374,217.584 305.874,216.75 306.5,216C 306.296,213.379 306.296,210.545 306.5,207.5 Z"/></g>
<g><path style="opacity:1" fill="#14133a" d="M 261.5,263.5 C 260.833,263.5 260.167,263.5 259.5,263.5C 259.833,262.833 260.167,262.167 260.5,261.5C 265.012,259.503 268.845,256.503 272,252.5C 276.505,248.141 280.005,243.141 282.5,237.5C 288.916,229.831 291.249,221.164 289.5,211.5C 289.351,210.448 289.517,209.448 290,208.5C 291.934,217.848 291.601,227.181 289,236.5C 286.026,241.085 284.026,246.085 283,251.5C 278.415,253.644 274.915,256.978 272.5,261.5C 271.264,260.754 269.93,260.421 268.5,260.5C 268.5,261.5 268.5,262.5 268.5,263.5C 269.5,263.5 270.5,263.5 271.5,263.5C 271.5,265.167 271.5,266.833 271.5,268.5C 268.46,266.513 265.127,264.847 261.5,263.5 Z"/></g>
<g><path style="opacity:0.004" fill="#000000" d="M 102.5,261.5 C 103.833,262.167 103.833,262.167 102.5,261.5 Z"/></g>
<g><path style="opacity:1" fill="#3e2689" d="M 140.5,191.5 C 140.5,193.5 140.5,195.5 140.5,197.5C 140.217,203.679 141.05,209.679 143,215.5C 144.309,217.976 146.142,219.976 148.5,221.5C 149.833,224.167 151.167,226.833 152.5,229.5C 156.053,232.292 159.386,235.292 162.5,238.5C 161.903,238.735 161.57,239.235 161.5,240C 163.328,241.663 164.995,243.496 166.5,245.5C 170.323,246.575 173.656,248.409 176.5,251C 190.574,256.911 205.24,260.578 220.5,262C 217.937,262.763 217.937,263.263 220.5,263.5C 222.805,263.443 225.138,263.443 227.5,263.5C 228.748,262.96 229.915,262.293 231,261.5C 234.011,264.029 237.345,265.029 241,264.5C 242.555,265.848 244.389,266.514 246.5,266.5C 251.214,264.826 255.881,263.16 260.5,261.5C 260.167,262.167 259.833,262.833 259.5,263.5C 255.399,265.385 251.399,267.552 247.5,270C 245.564,270.813 243.564,271.313 241.5,271.5C 237.138,271.756 232.805,271.923 228.5,272C 229.978,270.807 231.312,270.307 232.5,270.5C 224.312,270.274 216.479,268.607 209,265.5C 207.938,266.097 206.772,266.43 205.5,266.5C 199.967,263.114 193.967,260.947 187.5,260C 183.055,257.222 178.389,254.889 173.5,253C 171.588,250.212 168.921,248.879 165.5,249C 160.758,245.532 156.258,241.698 152,237.5C 151.737,233.01 149.737,229.677 146,227.5C 144.444,224.402 142.944,221.402 141.5,218.5C 140.833,215.167 140.167,211.833 139.5,208.5C 139.178,202.642 139.511,196.975 140.5,191.5 Z"/></g>
<g><path style="opacity:1" fill="#1f1c5c" d="M 310.5,239.5 C 311.87,241.25 312.87,243.25 313.5,245.5C 314.15,247.435 314.483,249.435 314.5,251.5C 313.066,246.188 310.566,245.521 307,249.5C 306.311,248.643 305.478,247.977 304.5,247.5C 304.94,254.284 302.44,259.618 297,263.5C 295.507,269.156 292.507,273.823 288,277.5C 287.586,277.043 287.086,276.709 286.5,276.5C 285.253,278.006 285.253,279.506 286.5,281C 283.164,280.998 280.83,282.498 279.5,285.5C 274.204,286.698 269.871,289.365 266.5,293.5C 264.314,294.221 262.147,294.887 260,295.5C 259.667,295.167 259.333,294.833 259,294.5C 258.612,295.428 257.945,296.095 257,296.5C 254.562,295.034 252.395,295.368 250.5,297.5C 250.709,298.086 251.043,298.586 251.5,299C 246.838,299.991 242.338,301.491 238,303.5C 236.354,301.859 235.354,302.193 235,304.5C 225.143,304.331 214.976,304.164 204.5,304C 203.263,303.768 202.263,303.268 201.5,302.5C 235.55,303.966 263.216,291.633 284.5,265.5C 290.282,259.965 295.615,253.965 300.5,247.5C 301.429,246.311 301.762,244.978 301.5,243.5C 302.833,243.5 304.167,243.5 305.5,243.5C 305.551,241.43 304.885,239.597 303.5,238C 303.833,237.5 304.167,237 304.5,236.5C 305.722,238.978 307.722,239.978 310.5,239.5 Z"/></g>
<g><path style="opacity:0.004" fill="#000000" d="M 17.5,263.5 C 18.8333,264.167 18.8333,264.167 17.5,263.5 Z"/></g>
<g><path style="opacity:1" fill="#2e2174" d="M 141.5,218.5 C 142.944,221.402 144.444,224.402 146,227.5C 149.737,229.677 151.737,233.01 152,237.5C 156.258,241.698 160.758,245.532 165.5,249C 168.921,248.879 171.588,250.212 173.5,253C 178.389,254.889 183.055,257.222 187.5,260C 193.967,260.947 199.967,263.114 205.5,266.5C 206.772,266.43 207.938,266.097 209,265.5C 216.479,268.607 224.312,270.274 232.5,270.5C 231.312,270.307 229.978,270.807 228.5,272C 232.805,271.923 237.138,271.756 241.5,271.5C 238.466,273.404 235.133,274.738 231.5,275.5C 226.821,275.666 222.155,275.499 217.5,275C 216.579,273.244 215.412,273.077 214,274.5C 208.254,273.328 202.587,271.994 197,270.5C 194.416,271.861 192.416,271.195 191,268.5C 190.586,268.957 190.086,269.291 189.5,269.5C 182.941,265.953 176.274,263.453 169.5,262C 166.667,259.833 163.833,257.667 161,255.5C 160.282,256.451 159.449,256.617 158.5,256C 157.897,254.175 157.23,252.341 156.5,250.5C 152.895,249.058 150.062,246.725 148,243.5C 147.244,241.191 147.744,239.191 149.5,237.5C 147.611,234.877 145.611,232.377 143.5,230C 142.562,226.208 141.896,222.375 141.5,218.5 Z"/></g>
<g><path style="opacity:1" fill="#57598a" d="M 367.5,228.5 C 359.367,265.467 339.034,293.634 306.5,313C 272.172,330.547 237.172,332.047 201.5,317.5C 197.664,315.416 193.997,313.083 190.5,310.5C 218.662,325.19 248.329,329.024 279.5,322C 283.468,320.962 287.135,319.462 290.5,317.5C 295.443,316.639 299.776,314.639 303.5,311.5C 308.465,309.351 313.132,306.684 317.5,303.5C 323.155,299.177 328.488,294.51 333.5,289.5C 353.405,269.346 364.405,245.013 366.5,216.5C 367.326,211.684 367.826,206.684 368,201.5C 368.681,210.523 368.514,219.523 367.5,228.5 Z"/></g>
<g><path style="opacity:0.004" fill="#000000" d="M 113.5,267.5 C 114.833,268.167 114.833,268.167 113.5,267.5 Z"/></g>
<g><path style="opacity:1" fill="#11163d" d="M 315.5,258.5 C 313.314,257.427 311.148,257.76 309,259.5C 307.908,262.044 307.241,264.711 307,267.5C 305.926,268.618 304.76,269.618 303.5,270.5C 301.201,276.1 298.534,281.433 295.5,286.5C 294.5,286.5 293.5,286.5 292.5,286.5C 292.736,289.226 291.903,291.559 290,293.5C 288.213,294.343 286.38,294.51 284.5,294C 282.963,295.11 282.297,296.61 282.5,298.5C 280.058,298.354 279.391,299.187 280.5,301C 276.734,302.278 273.734,303.944 271.5,306C 268.156,306.667 265.489,308.334 263.5,311C 264.902,312.342 264.569,313.176 262.5,313.5C 258.339,314.696 254.506,314.696 251,313.5C 250.5,314 250,314.5 249.5,315C 245.15,315.368 240.817,315.868 236.5,316.5C 231.534,315.669 226.534,315.336 221.5,315.5C 216.875,313.504 212.208,311.504 207.5,309.5C 212.435,310.525 217.435,311.691 222.5,313C 227.833,313.667 233.167,313.667 238.5,313C 238.833,312.667 239.167,312.333 239.5,312C 237.216,310.637 237.049,309.137 239,307.5C 240,307.833 241,308.167 242,308.5C 245.257,306.653 248.257,305.986 251,306.5C 251.333,307.167 251.667,307.833 252,308.5C 255.667,305.5 259.333,302.5 263,299.5C 263.414,299.957 263.914,300.291 264.5,300.5C 266.291,298.54 268.457,297.207 271,296.5C 271.333,297.167 271.667,297.833 272,298.5C 274.915,294.971 278.415,292.304 282.5,290.5C 282.351,289.448 282.517,288.448 283,287.5C 286.694,285.15 290.194,282.484 293.5,279.5C 295.106,275.647 296.272,271.647 297,267.5C 300.047,264.455 302.713,261.122 305,257.5C 305.875,259.513 307.209,259.513 309,257.5C 309.973,255.608 310.64,253.608 311,251.5C 314.006,252.841 315.506,255.175 315.5,258.5 Z"/></g>
<g><path style="opacity:1" fill="#091126" d="M 318.5,267.5 C 319.167,271.5 319.833,275.5 320.5,279.5C 320.334,284.511 320.501,289.511 321,294.5C 322.752,292.649 324.252,290.649 325.5,288.5C 328.871,285.129 331.871,281.463 334.5,277.5C 336.522,275.469 338.189,273.135 339.5,270.5C 339.833,270.5 340.167,270.5 340.5,270.5C 338.225,275.278 335.725,279.945 333,284.5C 326.936,288.263 327.103,289.93 333.5,289.5C 328.488,294.51 323.155,299.177 317.5,303.5C 317.423,302.25 316.756,301.417 315.5,301C 317.25,299.681 319.25,299.181 321.5,299.5C 319.995,292.624 319.162,285.624 319,278.5C 317.667,277.833 316.667,276.833 316,275.5C 315.293,277.081 314.46,278.581 313.5,280C 312.833,280.667 312.167,280.667 311.5,280C 312.696,279.346 312.696,278.846 311.5,278.5C 310.667,281.5 309.833,284.5 309,287.5C 307.248,292.094 305.082,296.427 302.5,300.5C 301.022,300.238 299.689,300.571 298.5,301.5C 299.326,302.451 299.492,303.451 299,304.5C 288.973,311.054 290.473,313.388 303.5,311.5C 299.776,314.639 295.443,316.639 290.5,317.5C 291.903,316.069 293.569,314.902 295.5,314C 292.615,313.305 289.782,312.472 287,311.5C 283.155,313.016 279.322,314.349 275.5,315.5C 278.863,310.433 283.529,308.6 289.5,310C 287.833,308.333 286.167,306.667 284.5,305C 285.649,303.256 286.983,303.089 288.5,304.5C 289.768,302.696 290.435,300.696 290.5,298.5C 291.833,298.5 293.167,298.5 294.5,298.5C 294.238,297.022 294.571,295.689 295.5,294.5C 298.795,290.891 301.295,286.891 303,282.5C 304.974,280.371 306.641,278.038 308,275.5C 308.585,270.489 309.251,265.489 310,260.5C 311.814,259.24 313.647,259.24 315.5,260.5C 316.33,263.016 317.33,265.35 318.5,267.5 Z"/></g>
<g><path style="opacity:1" fill="#201c5c" d="M 139.5,208.5 C 140.167,211.833 140.833,215.167 141.5,218.5C 141.896,222.375 142.562,226.208 143.5,230C 145.611,232.377 147.611,234.877 149.5,237.5C 147.744,239.191 147.244,241.191 148,243.5C 150.062,246.725 152.895,249.058 156.5,250.5C 157.23,252.341 157.897,254.175 158.5,256C 159.449,256.617 160.282,256.451 161,255.5C 163.833,257.667 166.667,259.833 169.5,262C 176.274,263.453 182.941,265.953 189.5,269.5C 190.086,269.291 190.586,268.957 191,268.5C 192.416,271.195 194.416,271.861 197,270.5C 202.587,271.994 208.254,273.328 214,274.5C 215.412,273.077 216.579,273.244 217.5,275C 222.155,275.499 226.821,275.666 231.5,275.5C 226.001,276.11 220.668,277.61 215.5,280C 210.25,280.193 205.083,280.693 200,281.5C 193.727,279.546 187.393,277.879 181,276.5C 180.667,276.833 180.333,277.167 180,277.5C 178.491,276.91 176.991,276.244 175.5,275.5C 174.998,274.284 174.665,273.117 174.5,272C 172.19,271.503 169.857,271.337 167.5,271.5C 167.5,272.5 167.5,273.5 167.5,274.5C 165.328,273.199 162.995,272.199 160.5,271.5C 160.66,269.801 160.494,268.134 160,266.5C 156.234,264.234 153.401,261.234 151.5,257.5C 151.5,257.167 151.5,256.833 151.5,256.5C 148.437,248.146 145.27,239.812 142,231.5C 140.121,223.959 139.288,216.292 139.5,208.5 Z"/></g>
<g><path style="opacity:1" fill="#0d122e" d="M 259.5,263.5 C 260.167,263.5 260.833,263.5 261.5,263.5C 261.238,264.978 261.571,266.311 262.5,267.5C 268.898,269.565 268.898,270.898 262.5,271.5C 262.719,272.675 262.386,273.675 261.5,274.5C 255.167,280.898 248,285.898 240,289.5C 239.667,289.167 239.333,288.833 239,288.5C 236.442,290.138 233.609,291.304 230.5,292C 213.916,294.471 197.583,293.971 181.5,290.5C 191.518,290.857 201.518,291.523 211.5,292.5C 215.5,292 219.5,291.5 223.5,291C 227.009,288.83 229.509,286.33 231,283.5C 233.035,284.374 235.368,284.707 238,284.5C 238.667,283.833 238.667,283.167 238,282.5C 236.434,283.061 235.101,282.394 234,280.5C 233.383,279.551 233.549,278.718 234.5,278C 240.678,274.745 247.011,271.745 253.5,269C 255.475,266.908 257.475,265.075 259.5,263.5 Z"/></g>
<g><path style="opacity:0.956" fill="#281e5e" d="M 131.5,199.5 C 130.796,212.022 131.963,224.355 135,236.5C 137.845,245.713 141.012,254.713 144.5,263.5C 144.421,264.93 144.754,266.264 145.5,267.5C 149.923,272.68 153.59,278.346 156.5,284.5C 155.2,286.051 153.533,287.051 151.5,287.5C 142.198,276.573 135.198,264.24 130.5,250.5C 131.85,251.483 132.85,252.816 133.5,254.5C 135.349,252.811 136.349,250.644 136.5,248C 135.291,245.681 134.458,243.181 134,240.5C 133.667,241.833 133.333,243.167 133,244.5C 132.5,244 132,243.5 131.5,243C 130.611,228.437 130.611,213.937 131.5,199.5 Z"/></g>
<g><path style="opacity:0.004" fill="#000000" d="M 430.5,276.5 C 431.833,277.167 431.833,277.167 430.5,276.5 Z"/></g>
<g><path style="opacity:1" fill="#b991d2" d="M 290.5,197.5 C 291.75,197.577 292.583,198.244 293,199.5C 294.038,204.119 295.538,208.452 297.5,212.5C 297.5,213.5 297.5,214.5 297.5,215.5C 298.783,233.702 294.45,250.369 284.5,265.5C 263.216,291.633 235.55,303.966 201.5,302.5C 199.801,302.66 198.134,302.494 196.5,302C 202.167,301.667 207.833,301.333 213.5,301C 217.09,300.689 220.423,299.856 223.5,298.5C 228.884,297.656 234.218,296.489 239.5,295C 284.144,276.876 301.144,244.376 290.5,197.5 Z"/></g>
<g><path style="opacity:1" fill="#6766c2" d="M 313.5,245.5 C 314.79,246.058 315.623,247.058 316,248.5C 317.821,256.123 319.321,263.789 320.5,271.5C 321.5,271.5 322.5,271.5 323.5,271.5C 323.201,273.604 323.534,275.604 324.5,277.5C 325.192,276.975 325.692,276.308 326,275.5C 327.883,276.653 328.716,278.319 328.5,280.5C 330.988,280.317 332.988,279.317 334.5,277.5C 331.871,281.463 328.871,285.129 325.5,288.5C 324.5,288.5 323.5,288.5 322.5,288.5C 322.785,285.171 322.118,282.171 320.5,279.5C 319.833,275.5 319.167,271.5 318.5,267.5C 318.3,264.37 317.634,261.37 316.5,258.5C 316.59,255.848 315.924,253.515 314.5,251.5C 314.483,249.435 314.15,247.435 313.5,245.5 Z"/></g>
<g><path style="opacity:1" fill="#8188c5" d="M 320.5,279.5 C 322.118,282.171 322.785,285.171 322.5,288.5C 323.5,288.5 324.5,288.5 325.5,288.5C 324.252,290.649 322.752,292.649 321,294.5C 320.501,289.511 320.334,284.511 320.5,279.5 Z"/></g>
<g><path style="opacity:1" fill="#131641" d="M 151.5,257.5 C 153.401,261.234 156.234,264.234 160,266.5C 160.494,268.134 160.66,269.801 160.5,271.5C 162.995,272.199 165.328,273.199 167.5,274.5C 167.5,273.5 167.5,272.5 167.5,271.5C 169.857,271.337 172.19,271.503 174.5,272C 174.665,273.117 174.998,274.284 175.5,275.5C 176.991,276.244 178.491,276.91 180,277.5C 180.333,277.167 180.667,276.833 181,276.5C 187.393,277.879 193.727,279.546 200,281.5C 205.083,280.693 210.25,280.193 215.5,280C 220.668,277.61 226.001,276.11 231.5,275.5C 235.133,274.738 238.466,273.404 241.5,271.5C 243.564,271.313 245.564,270.813 247.5,270C 251.399,267.552 255.399,265.385 259.5,263.5C 257.475,265.075 255.475,266.908 253.5,269C 247.011,271.745 240.678,274.745 234.5,278C 233.549,278.718 233.383,279.551 234,280.5C 235.101,282.394 236.434,283.061 238,282.5C 238.667,283.167 238.667,283.833 238,284.5C 235.368,284.707 233.035,284.374 231,283.5C 229.509,286.33 227.009,288.83 223.5,291C 219.5,291.5 215.5,292 211.5,292.5C 201.518,291.523 191.518,290.857 181.5,290.5C 178.166,289.071 174.833,287.405 171.5,285.5C 169.172,282.34 166.339,279.673 163,277.5C 158.911,270.928 155.078,264.261 151.5,257.5 Z"/></g>
<g><path style="opacity:0.004" fill="#000000" d="M 11.5,291.5 C 12.8333,292.167 12.8333,292.167 11.5,291.5 Z"/></g>
<g><path style="opacity:1" fill="#0d1332" d="M 315.5,258.5 C 315.833,258.5 316.167,258.5 316.5,258.5C 317.634,261.37 318.3,264.37 318.5,267.5C 317.33,265.35 316.33,263.016 315.5,260.5C 313.647,259.24 311.814,259.24 310,260.5C 309.251,265.489 308.585,270.489 308,275.5C 306.641,278.038 304.974,280.371 303,282.5C 301.295,286.891 298.795,290.891 295.5,294.5C 294.571,295.689 294.238,297.022 294.5,298.5C 293.167,298.5 291.833,298.5 290.5,298.5C 290.435,300.696 289.768,302.696 288.5,304.5C 286.983,303.089 285.649,303.256 284.5,305C 286.167,306.667 287.833,308.333 289.5,310C 283.529,308.6 278.863,310.433 275.5,315.5C 266.045,316.905 256.545,317.905 247,318.5C 238.26,318.338 229.76,317.338 221.5,315.5C 226.534,315.336 231.534,315.669 236.5,316.5C 240.817,315.868 245.15,315.368 249.5,315C 250,314.5 250.5,314 251,313.5C 254.506,314.696 258.339,314.696 262.5,313.5C 264.569,313.176 264.902,312.342 263.5,311C 265.489,308.334 268.156,306.667 271.5,306C 273.734,303.944 276.734,302.278 280.5,301C 279.391,299.187 280.058,298.354 282.5,298.5C 282.297,296.61 282.963,295.11 284.5,294C 286.38,294.51 288.213,294.343 290,293.5C 291.903,291.559 292.736,289.226 292.5,286.5C 293.5,286.5 294.5,286.5 295.5,286.5C 298.534,281.433 301.201,276.1 303.5,270.5C 304.76,269.618 305.926,268.618 307,267.5C 307.241,264.711 307.908,262.044 309,259.5C 311.148,257.76 313.314,257.427 315.5,258.5 Z"/></g>
<g><path style="opacity:1" fill="#060f1a" d="M 317.5,303.5 C 313.132,306.684 308.465,309.351 303.5,311.5C 290.473,313.388 288.973,311.054 299,304.5C 299.492,303.451 299.326,302.451 298.5,301.5C 299.689,300.571 301.022,300.238 302.5,300.5C 305.082,296.427 307.248,292.094 309,287.5C 309.833,284.5 310.667,281.5 311.5,278.5C 312.696,278.846 312.696,279.346 311.5,280C 312.167,280.667 312.833,280.667 313.5,280C 314.46,278.581 315.293,277.081 316,275.5C 316.667,276.833 317.667,277.833 319,278.5C 319.162,285.624 319.995,292.624 321.5,299.5C 319.25,299.181 317.25,299.681 315.5,301C 316.756,301.417 317.423,302.25 317.5,303.5 Z"/></g>
<g><path style="opacity:0.004" fill="#000000" d="M 361.5,293.5 C 362.833,294.167 362.833,294.167 361.5,293.5 Z"/></g>
<g><path style="opacity:1" fill="#16184c" d="M 314.5,251.5 C 315.924,253.515 316.59,255.848 316.5,258.5C 316.167,258.5 315.833,258.5 315.5,258.5C 315.506,255.175 314.006,252.841 311,251.5C 310.64,253.608 309.973,255.608 309,257.5C 307.209,259.513 305.875,259.513 305,257.5C 302.713,261.122 300.047,264.455 297,267.5C 296.272,271.647 295.106,275.647 293.5,279.5C 290.194,282.484 286.694,285.15 283,287.5C 282.517,288.448 282.351,289.448 282.5,290.5C 278.415,292.304 274.915,294.971 272,298.5C 271.667,297.833 271.333,297.167 271,296.5C 268.457,297.207 266.291,298.54 264.5,300.5C 263.914,300.291 263.414,299.957 263,299.5C 259.333,302.5 255.667,305.5 252,308.5C 251.667,307.833 251.333,307.167 251,306.5C 248.257,305.986 245.257,306.653 242,308.5C 241,308.167 240,307.833 239,307.5C 237.049,309.137 237.216,310.637 239.5,312C 239.167,312.333 238.833,312.667 238.5,313C 233.167,313.667 227.833,313.667 222.5,313C 217.435,311.691 212.435,310.525 207.5,309.5C 203.899,307.7 200.233,305.866 196.5,304C 195.663,302.989 195.33,301.822 195.5,300.5C 204.862,300.163 214.196,299.496 223.5,298.5C 220.423,299.856 217.09,300.689 213.5,301C 207.833,301.333 202.167,301.667 196.5,302C 198.134,302.494 199.801,302.66 201.5,302.5C 202.263,303.268 203.263,303.768 204.5,304C 214.976,304.164 225.143,304.331 235,304.5C 235.354,302.193 236.354,301.859 238,303.5C 242.338,301.491 246.838,299.991 251.5,299C 251.043,298.586 250.709,298.086 250.5,297.5C 252.395,295.368 254.562,295.034 257,296.5C 257.945,296.095 258.612,295.428 259,294.5C 259.333,294.833 259.667,295.167 260,295.5C 262.147,294.887 264.314,294.221 266.5,293.5C 269.871,289.365 274.204,286.698 279.5,285.5C 280.83,282.498 283.164,280.998 286.5,281C 285.253,279.506 285.253,278.006 286.5,276.5C 287.086,276.709 287.586,277.043 288,277.5C 292.507,273.823 295.507,269.156 297,263.5C 302.44,259.618 304.94,254.284 304.5,247.5C 305.478,247.977 306.311,248.643 307,249.5C 310.566,245.521 313.066,246.188 314.5,251.5 Z"/></g>
<g><path style="opacity:1" fill="#191946" d="M 144.5,263.5 C 156.405,282.406 171.738,298.072 190.5,310.5C 193.997,313.083 197.664,315.416 201.5,317.5C 198.323,316.363 195.157,316.363 192,317.5C 190.7,316.293 189.2,315.626 187.5,315.5C 187.5,314.167 187.5,312.833 187.5,311.5C 184.786,311.75 182.119,311.917 179.5,312C 180.313,310.686 181.313,309.519 182.5,308.5C 182.113,307.28 181.28,306.613 180,306.5C 178.832,307.509 177.665,308.509 176.5,309.5C 174.116,307.115 171.45,305.115 168.5,303.5C 167.893,303.624 167.56,303.957 167.5,304.5C 161.462,299.463 156.129,293.797 151.5,287.5C 153.533,287.051 155.2,286.051 156.5,284.5C 153.59,278.346 149.923,272.68 145.5,267.5C 144.754,266.264 144.421,264.93 144.5,263.5 Z"/></g>
<g><path style="opacity:0.004" fill="#000000" d="M 323.5,313.5 C 324.833,314.167 324.833,314.167 323.5,313.5 Z"/></g>
<g><path style="opacity:0.999" fill="#0f1431" d="M 359.5,146.5 C 378.36,179.889 381.527,214.889 369,251.5C 342.208,312.776 295.042,339.943 227.5,333C 204.968,328.565 184.968,319.065 167.5,304.5C 167.56,303.957 167.893,303.624 168.5,303.5C 171.45,305.115 174.116,307.115 176.5,309.5C 177.665,308.509 178.832,307.509 180,306.5C 181.28,306.613 182.113,307.28 182.5,308.5C 181.313,309.519 180.313,310.686 179.5,312C 182.119,311.917 184.786,311.75 187.5,311.5C 187.5,312.833 187.5,314.167 187.5,315.5C 189.2,315.626 190.7,316.293 192,317.5C 195.157,316.363 198.323,316.363 201.5,317.5C 237.172,332.047 272.172,330.547 306.5,313C 339.034,293.634 359.367,265.467 367.5,228.5C 368.29,227.391 368.79,226.058 369,224.5C 369.167,219.167 369.333,213.833 369.5,208.5C 369.387,197.752 368.72,187.252 367.5,177C 369.69,175.113 369.857,172.947 368,170.5C 367.667,170.833 367.333,171.167 367,171.5C 366.612,167.781 365.945,164.114 365,160.5C 362.484,156.12 360.65,151.453 359.5,146.5 Z"/></g>
<g><path style="opacity:0.004" fill="#000000" d="M 427.5,320.5 C 428.833,321.167 428.833,321.167 427.5,320.5 Z"/></g>
<g><path style="opacity:0.004" fill="#000000" d="M 256.5,338.5 C 257.833,339.167 257.833,339.167 256.5,338.5 Z"/></g>
<g><path style="opacity:0.004" fill="#000000" d="M 295.5,339.5 C 296.833,340.167 296.833,340.167 295.5,339.5 Z"/></g>
<g><path style="opacity:0.004" fill="#000000" d="M 373.5,342.5 C 374.833,343.167 374.833,343.167 373.5,342.5 Z"/></g>
<g><path style="opacity:0.004" fill="#000000" d="M 449.5,347.5 C 450.833,348.167 450.833,348.167 449.5,347.5 Z"/></g>
<g><path style="opacity:0.004" fill="#000000" d="M 98.5,350.5 C 99.8333,351.167 99.8333,351.167 98.5,350.5 Z"/></g>
<g><path style="opacity:0.004" fill="#000000" d="M 406.5,356.5 C 407.833,357.167 407.833,357.167 406.5,356.5 Z"/></g>
<g><path style="opacity:0.996" fill="#f1f6fa" d="M 239.5,367.5 C 238.566,368.568 238.232,369.901 238.5,371.5C 235.543,371.477 233.043,370.477 231,368.5C 230.667,371.5 230.333,374.5 230,377.5C 229.802,375.618 229.302,373.952 228.5,372.5C 230.738,358.866 238.738,353.366 252.5,356C 255.942,357.281 258.608,359.447 260.5,362.5C 258.157,364.344 255.99,366.344 254,368.5C 252.513,367.845 251.347,366.845 250.5,365.5C 246.297,363.919 242.63,364.586 239.5,367.5 Z"/></g>
<g><path style="opacity:1" fill="#e8f0f6" d="M 303.5,367.5 C 299.802,367.437 296.469,367.437 293.5,367.5C 292.733,366.828 292.066,365.995 291.5,365C 288.183,364.502 284.85,364.335 281.5,364.5C 281.492,367.545 281.159,370.545 280.5,373.5C 280.5,374.5 280.5,375.5 280.5,376.5C 283.187,376.336 285.854,376.503 288.5,377C 285.518,377.498 282.518,377.665 279.5,377.5C 279.5,376.5 279.5,375.5 279.5,374.5C 277.167,374.5 274.833,374.5 272.5,374.5C 272.784,376.415 272.451,378.081 271.5,379.5C 271.5,371.5 271.5,363.5 271.5,355.5C 279.585,355.099 287.585,355.599 295.5,357C 299.909,359.234 302.575,362.734 303.5,367.5 Z"/></g>
<g><path style="opacity:0.004" fill="#000000" d="M 59.5,362.5 C 60.8333,363.167 60.8333,363.167 59.5,362.5 Z"/></g>
<g><path style="opacity:1" fill="#e7f0f6" d="M 168.5,372.5 C 166.999,374.739 165.666,374.739 164.5,372.5C 163.304,372.846 163.304,373.346 164.5,374C 162.973,375.368 161.473,375.868 160,375.5C 158.312,374.675 158.145,373.675 159.5,372.5C 156.686,371.478 153.686,370.645 150.5,370C 149.809,368.933 149.309,367.766 149,366.5C 148.329,365.748 147.496,365.414 146.5,365.5C 146.616,362.14 146.949,358.807 147.5,355.5C 150.187,355.336 152.854,355.503 155.5,356C 160.203,361.258 164.537,366.758 168.5,372.5 Z"/></g>
<g><path style="opacity:1" fill="#e2e9f3" d="M 344.5,379.5 C 343.671,380.332 342.838,379.999 342,378.5C 341.71,376.048 341.044,373.715 340,371.5C 338.691,373.891 337.691,373.891 337,371.5C 337.027,373.323 336.193,374.99 334.5,376.5C 332.957,375.264 331.957,373.598 331.5,371.5C 330.675,370.614 329.675,370.281 328.5,370.5C 328.768,372.099 328.434,373.432 327.5,374.5C 326.778,374.082 326.278,373.416 326,372.5C 323.167,373.667 322.333,372.833 323.5,370C 322.041,370.355 320.707,370.189 319.5,369.5C 320.827,364.791 322.827,360.291 325.5,356C 328.882,355.176 332.216,355.343 335.5,356.5C 339.48,363.773 342.48,371.44 344.5,379.5 Z"/></g>
<g><path style="opacity:1" fill="#cad2e1" d="M 406.5,379.5 C 406.657,380.873 406.49,382.207 406,383.5C 405.167,382 404,380.833 402.5,380C 403.167,379.667 403.833,379.333 404.5,379C 403.167,378.333 401.833,378.333 400.5,379C 400.154,381.94 399.154,384.44 397.5,386.5C 397.924,382.297 397.424,378.297 396,374.5C 392.464,377.701 389.297,381.201 386.5,385C 384.167,385.667 381.833,385.667 379.5,385C 377.332,382.002 374.999,379.169 372.5,376.5C 370.927,372.541 367.927,370.875 363.5,371.5C 361.876,375.659 360.709,379.993 360,384.5C 359.517,383.552 359.351,382.552 359.5,381.5C 359.173,372.871 359.84,364.371 361.5,356C 364.167,355.333 366.833,355.333 369.5,356C 373.663,361.991 378.329,367.491 383.5,372.5C 388.425,367.493 392.758,361.993 396.5,356C 399.482,355.502 402.482,355.335 405.5,355.5C 406.403,363.458 406.736,371.458 406.5,379.5 Z"/></g>
<g><path style="opacity:1" fill="#e5ecf4" d="M 220.5,386.5 C 219.87,382.897 218.37,379.564 216,376.5C 214.992,376.982 213.825,377.148 212.5,377C 211.295,378.376 209.962,379.542 208.5,380.5C 199.404,379.88 193.404,375.38 190.5,367C 192.154,358.85 197.154,355.017 205.5,355.5C 211.323,354.991 215.99,356.991 219.5,361.5C 217.851,363.65 216.018,365.65 214,367.5C 213.097,366.299 211.931,365.465 210.5,365C 207.518,364.502 204.518,364.335 201.5,364.5C 201.178,366.722 201.845,368.556 203.5,370C 208.838,371.216 213.672,373.383 218,376.5C 220.164,379.447 220.998,382.781 220.5,386.5 Z"/></g>
<g><path style="opacity:1" fill="#dfe7ef" d="M 135.5,379.5 C 130.167,379.5 124.833,379.5 119.5,379.5C 119.663,381.857 119.497,384.19 119,386.5C 118.818,383.774 118.318,381.107 117.5,378.5C 115.629,377.233 113.796,377.233 112,378.5C 111.5,372.175 111.334,365.842 111.5,359.5C 111.5,358.167 111.5,356.833 111.5,355.5C 120.525,355.168 129.525,355.502 138.5,356.5C 139.393,359.084 139.726,361.751 139.5,364.5C 133.196,365.26 126.863,365.593 120.5,365.5C 120.286,367.144 120.62,368.644 121.5,370C 126.496,370.611 131.496,371.111 136.5,371.5C 136.806,374.385 136.473,377.052 135.5,379.5 Z"/></g>
<g><path style="opacity:0.004" fill="#000000" d="M 29.5,374.5 C 30.8333,375.167 30.8333,375.167 29.5,374.5 Z"/></g>
<g><path style="opacity:1" fill="#c8d0e1" d="M 303.5,367.5 C 304.723,373.787 302.389,379.12 296.5,383.5C 299.362,387.195 302.028,391.029 304.5,395C 300.833,395.667 297.167,395.667 293.5,395C 290.833,391.667 288.167,388.333 285.5,385C 284.207,384.51 282.873,384.343 281.5,384.5C 284.216,394.11 280.883,397.777 271.5,395.5C 270.446,390.19 270.446,384.857 271.5,379.5C 272.451,378.081 272.784,376.415 272.5,374.5C 274.833,374.5 277.167,374.5 279.5,374.5C 279.5,375.5 279.5,376.5 279.5,377.5C 282.518,377.665 285.518,377.498 288.5,377C 285.854,376.503 283.187,376.336 280.5,376.5C 280.5,375.5 280.5,374.5 280.5,373.5C 283.841,375.461 287.508,375.961 291.5,375C 293.278,372.865 293.945,370.365 293.5,367.5C 296.469,367.437 299.802,367.437 303.5,367.5 Z"/></g>
<g><path style="opacity:1" fill="#d3dbe8" d="M 146.5,365.5 C 147.496,365.414 148.329,365.748 149,366.5C 149.309,367.766 149.809,368.933 150.5,370C 153.686,370.645 156.686,371.478 159.5,372.5C 158.145,373.675 158.312,374.675 160,375.5C 161.473,375.868 162.973,375.368 164.5,374C 163.304,373.346 163.304,372.846 164.5,372.5C 165.666,374.739 166.999,374.739 168.5,372.5C 169.482,373.141 170.482,373.807 171.5,374.5C 172.496,368.202 172.83,361.868 172.5,355.5C 175.5,355.5 178.5,355.5 181.5,355.5C 182.382,368.811 182.715,382.144 182.5,395.5C 179.482,395.665 176.482,395.498 173.5,395C 169.064,387.9 163.897,381.4 158,375.5C 156.948,382.128 156.448,388.794 156.5,395.5C 154.599,395.433 152.766,395.767 151,396.5C 149.108,396.223 147.775,395.223 147,393.5C 147.367,384.37 147.201,375.037 146.5,365.5 Z"/></g>
<g><path style="opacity:1" fill="#bfc9dc" d="M 319.5,369.5 C 320.707,370.189 322.041,370.355 323.5,370C 322.333,372.833 323.167,373.667 326,372.5C 326.278,373.416 326.778,374.082 327.5,374.5C 327.461,375.583 327.127,376.583 326.5,377.5C 327.667,377.833 328.833,378.167 330,378.5C 332.008,378.693 333.508,378.026 334.5,376.5C 336.193,374.99 337.027,373.323 337,371.5C 337.691,373.891 338.691,373.891 340,371.5C 341.044,373.715 341.71,376.048 342,378.5C 342.838,379.999 343.671,380.332 344.5,379.5C 347.469,384.399 349.469,389.733 350.5,395.5C 342.454,397.78 338.454,394.78 338.5,386.5C 333.489,386.334 328.489,386.501 323.5,387C 322.39,395.888 317.724,398.555 309.5,395C 313.346,387.073 316.679,378.573 319.5,369.5 Z"/></g>
<g><path style="opacity:0.004" fill="#000000" d="M 18.5,383.5 C 19.8333,384.167 19.8333,384.167 18.5,383.5 Z"/></g>
<g><path style="opacity:0.983" fill="#b2bbce" d="M 372.5,376.5 C 371.542,376.047 370.708,375.381 370,374.5C 368.892,381.115 368.225,387.782 368,394.5C 364.943,395.451 361.777,395.784 358.5,395.5C 357.81,390.726 358.143,386.059 359.5,381.5C 359.351,382.552 359.517,383.552 360,384.5C 360.709,379.993 361.876,375.659 363.5,371.5C 367.927,370.875 370.927,372.541 372.5,376.5 Z"/></g>
<g><path style="opacity:1" fill="#a2acc5" d="M 406.5,379.5 C 407.806,384.616 408.473,389.949 408.5,395.5C 405.247,396.247 401.914,396.247 398.5,395.5C 398.296,392.482 397.963,389.482 397.5,386.5C 399.154,384.44 400.154,381.94 400.5,379C 401.833,378.333 403.167,378.333 404.5,379C 403.833,379.333 403.167,379.667 402.5,380C 404,380.833 405.167,382 406,383.5C 406.49,382.207 406.657,380.873 406.5,379.5 Z"/></g>
<g><path style="opacity:1" fill="#c5cddf" d="M 239.5,367.5 C 239.772,371.902 239.439,376.235 238.5,380.5C 241.58,387.304 246.246,388.637 252.5,384.5C 252.833,383.833 253.167,383.167 253.5,382.5C 250.5,381.833 247.5,381.167 244.5,380.5C 243.787,377.904 243.787,375.237 244.5,372.5C 249.844,372.334 255.177,372.501 260.5,373C 265.168,391.668 257.835,399.001 238.5,395C 230.457,389.717 227.123,382.217 228.5,372.5C 229.302,373.952 229.802,375.618 230,377.5C 230.333,374.5 230.667,371.5 231,368.5C 233.043,370.477 235.543,371.477 238.5,371.5C 238.232,369.901 238.566,368.568 239.5,367.5 Z"/></g>
<g><path style="opacity:0.893" fill="#c9d1e0" d="M 75.5,355.5 C 78.8333,355.5 82.1667,355.5 85.5,355.5C 86.1661,365.484 86.6661,375.484 87,385.5C 92.083,386.307 97.2497,386.807 102.5,387C 103.444,389.719 103.777,392.552 103.5,395.5C 94.1667,395.5 84.8333,395.5 75.5,395.5C 75.5,382.167 75.5,368.833 75.5,355.5 Z"/></g>
<g><path style="opacity:1" fill="#bbc2d6" d="M 220.5,386.5 C 218.181,393.514 213.181,396.847 205.5,396.5C 198.274,396.828 193.441,393.828 191,387.5C 192.973,386.36 194.807,385.027 196.5,383.5C 200.206,386.685 204.372,387.685 209,386.5C 212.345,384.194 212.178,382.194 208.5,380.5C 209.962,379.542 211.295,378.376 212.5,377C 213.825,377.148 214.992,376.982 216,376.5C 218.37,379.564 219.87,382.897 220.5,386.5 Z"/></g>
<g><path style="opacity:0.004" fill="#000000" d="M 5.5,389.5 C 6.83333,390.167 6.83333,390.167 5.5,389.5 Z"/></g>
<g><path style="opacity:1" fill="#bbc5d7" d="M 111.5,359.5 C 111.334,365.842 111.5,372.175 112,378.5C 113.796,377.233 115.629,377.233 117.5,378.5C 118.318,381.107 118.818,383.774 119,386.5C 119.497,384.19 119.663,381.857 119.5,379.5C 124.833,379.5 130.167,379.5 135.5,379.5C 130.695,380.487 125.695,380.821 120.5,380.5C 120.338,382.527 120.505,384.527 121,386.5C 126.927,385.743 132.76,385.743 138.5,386.5C 138.5,389.5 138.5,392.5 138.5,395.5C 129.167,395.5 119.833,395.5 110.5,395.5C 110.172,383.322 110.505,371.322 111.5,359.5 Z"/></g>
<g><path style="opacity:0.004" fill="#000000" d="M 324.5,395.5 C 325.833,396.167 325.833,396.167 324.5,395.5 Z"/></g>
<g><path style="opacity:0.004" fill="#000000" d="M 129.5,396.5 C 130.833,397.167 130.833,397.167 129.5,396.5 Z"/></g>
<g><path style="opacity:0.004" fill="#000000" d="M 133.5,397.5 C 134.833,398.167 134.833,398.167 133.5,397.5 Z"/></g>
<g><path style="opacity:0.004" fill="#000000" d="M 364.5,403.5 C 365.833,404.167 365.833,404.167 364.5,403.5 Z"/></g>
<g><path style="opacity:0.004" fill="#000000" d="M 307.5,424.5 C 308.833,425.167 308.833,425.167 307.5,424.5 Z"/></g>
<g><path style="opacity:0.004" fill="#000000" d="M 213.5,428.5 C 214.833,429.167 214.833,429.167 213.5,428.5 Z"/></g>
<g><path style="opacity:0.004" fill="#000000" d="M 354.5,428.5 C 355.833,429.167 355.833,429.167 354.5,428.5 Z"/></g>
<g><path style="opacity:0.004" fill="#000000" d="M 279.5,430.5 C 280.833,431.167 280.833,431.167 279.5,430.5 Z"/></g>
<g><path style="opacity:0.004" fill="#000000" d="M 417.5,430.5 C 418.833,431.167 418.833,431.167 417.5,430.5 Z"/></g>
<g><path style="opacity:0.004" fill="#000000" d="M 489.5,431.5 C 490.833,432.167 490.833,432.167 489.5,431.5 Z"/></g>
<g><path style="opacity:0.004" fill="#000000" d="M 95.5,442.5 C 96.8333,443.167 96.8333,443.167 95.5,442.5 Z"/></g>
<g><path style="opacity:0.004" fill="#000000" d="M 245.5,442.5 C 246.833,443.167 246.833,443.167 245.5,442.5 Z"/></g>
<g><path style="opacity:0.004" fill="#000000" d="M 314.5,447.5 C 315.833,448.167 315.833,448.167 314.5,447.5 Z"/></g>
<g><path style="opacity:0.004" fill="#000000" d="M 281.5,467.5 C 282.833,468.167 282.833,468.167 281.5,467.5 Z"/></g>
<g><path style="opacity:0.004" fill="#000000" d="M 394.5,468.5 C 395.833,469.167 395.833,469.167 394.5,468.5 Z"/></g>
<g><path style="opacity:0.004" fill="#000000" d="M 65.5,482.5 C 66.8333,483.167 66.8333,483.167 65.5,482.5 Z"/></g>
<g><path style="opacity:0.004" fill="#000000" d="M 108.5,485.5 C 109.833,486.167 109.833,486.167 108.5,485.5 Z"/></g>
<g><path style="opacity:0.004" fill="#000000" d="M 30.5,497.5 C 31.8333,498.167 31.8333,498.167 30.5,497.5 Z"/></g>
<g><path style="opacity:0.004" fill="#000000" d="M 470.5,499.5 C 469.833,498.167 469.833,498.167 470.5,499.5 Z"/></g>
</svg>
